SourceSerifMaster-ExtraLightItalic.ufo
<glyph name="percent" format="2">
  <advance width="870"/>
  <unicode hex="0025"/>
  <outline>
    <contour>
      <point x="217" y="-12" type="line"/>
      <point x="724" y="653" type="line"/>
      <point x="708" y="665" type="line"/>
      <point x="200" y="0" type="line"/>
    </contour>
    <contour>
      <point x="183" y="256" type="curve" smooth="yes"/>
      <point x="274" y="256"/>
      <point x="352" y="383"/>
      <point x="352" y="535" type="curve" smooth="yes"/>
      <point x="352" y="624"/>
      <point x="309" y="667"/>
      <point x="254" y="667" type="curve" smooth="yes"/>
      <point x="159" y="667"/>
      <point x="83" y="538"/>
      <point x="83" y="386" type="curve" smooth="yes"/>
      <point x="83" y="300"/>
      <point x="125" y="256"/>
    </contour>
    <contour>
      <point x="185" y="273" type="curve" smooth="yes"/>
      <point x="142" y="273"/>
      <point x="111" y="307"/>
      <point x="111" y="388" type="curve" smooth="yes"/>
      <point x="111" y="533"/>
      <point x="178" y="650"/>
      <point x="251" y="650" type="curve" smooth="yes"/>
      <point x="290" y="650"/>
      <point x="324" y="619"/>
      <point x="324" y="536" type="curve" smooth="yes"/>
      <point x="324" y="390"/>
      <point x="259" y="273"/>
    </contour>
    <contour>
      <point x="661" y="-9" type="curve" smooth="yes"/>
      <point x="752" y="-9"/>
      <point x="830" y="118"/>
      <point x="830" y="270" type="curve" smooth="yes"/>
      <point x="830" y="359"/>
      <point x="787" y="402"/>
      <point x="732" y="402" type="curve" smooth="yes"/>
      <point x="637" y="402"/>
      <point x="561" y="273"/>
      <point x="561" y="121" type="curve" smooth="yes"/>
      <point x="561" y="35"/>
      <point x="603" y="-9"/>
    </contour>
    <contour>
      <point x="663" y="8" type="curve" smooth="yes"/>
      <point x="620" y="8"/>
      <point x="589" y="42"/>
      <point x="589" y="123" type="curve" smooth="yes"/>
      <point x="589" y="268"/>
      <point x="656" y="385"/>
      <point x="729" y="385" type="curve" smooth="yes"/>
      <point x="768" y="385"/>
      <point x="802" y="354"/>
      <point x="802" y="271" type="curve" smooth="yes"/>
      <point x="802" y="125"/>
      <point x="737" y="8"/>
    </contour>
  </outline>
</glyph>
<glyph name="parenright" format="2">
  <advance width="333"/>
  <unicode hex="0029"/>
  <outline>
    <contour>
      <point x="164" y="756" type="curve"/>
      <point x="151" y="745" type="line"/>
      <point x="238" y="616"/>
      <point x="261" y="505"/>
      <point x="261" y="381" type="curve" smooth="yes"/>
      <point x="261" y="178"/>
      <point x="194" y="5"/>
      <point x="-40" y="-192" type="curve"/>
      <point x="-29" y="-206" type="line"/>
      <point x="215" y="-16"/>
      <point x="289" y="183"/>
      <point x="289" y="382" type="curve" smooth="yes"/>
      <point x="289" y="512"/>
      <point x="258" y="642"/>
    </contour>
  </outline>
</glyph>
<glyph name="hyphen" format="2">
  <advance width="310"/>
  <unicode hex="002D"/>
  <outline>
    <contour>
      <point x="56" y="235" type="line"/>
      <point x="286" y="235" type="line"/>
      <point x="286" y="261" type="line"/>
      <point x="56" y="261" type="line"/>
    </contour>
  </outline>
</glyph>
<glyph name="period" format="2">
  <advance width="290"/>
  <unicode hex="002E"/>
  <outline>
    <contour>
      <point x="113" y="-5" type="curve" smooth="yes"/>
      <point x="131" y="-5"/>
      <point x="146" y="8"/>
      <point x="146" y="28" type="curve" smooth="yes"/>
      <point x="146" y="42"/>
      <point x="136" y="55"/>
      <point x="119" y="55" type="curve" smooth="yes"/>
      <point x="100" y="55"/>
      <point x="85" y="41"/>
      <point x="85" y="22" type="curve" smooth="yes"/>
      <point x="85" y="9"/>
      <point x="95" y="-5"/>
    </contour>
  </outline>
</glyph>
<glyph name="zero" format="2">
  <advance width="510"/>
  <unicode hex="0030"/>
  <outline>
    <contour>
      <point x="235" y="-13" type="curve" smooth="yes"/>
      <point x="388" y="-13"/>
      <point x="510" y="202"/>
      <point x="510" y="459" type="curve" smooth="yes"/>
      <point x="510" y="599"/>
      <point x="437" y="667"/>
      <point x="353" y="667" type="curve" smooth="yes"/>
      <point x="199" y="667"/>
      <point x="76" y="446"/>
      <point x="76" y="195" type="curve" smooth="yes"/>
      <point x="76" y="55"/>
      <point x="149" y="-13"/>
    </contour>
    <contour>
      <point x="238" y="7" type="curve" smooth="yes"/>
      <point x="164" y="7"/>
      <point x="104" y="66"/>
      <point x="104" y="198" type="curve" smooth="yes"/>
      <point x="104" y="434"/>
      <point x="213" y="647"/>
      <point x="350" y="647" type="curve" smooth="yes"/>
      <point x="420" y="647"/>
      <point x="482" y="590"/>
      <point x="482" y="454" type="curve" smooth="yes"/>
      <point x="482" y="214"/>
      <point x="377" y="7"/>
    </contour>
  </outline>
</glyph>
<glyph name="two" format="2">
  <advance width="510"/>
  <unicode hex="0032"/>
  <outline>
    <contour>
      <point x="44" y="0" type="line"/>
      <point x="437" y="0" type="line"/>
      <point x="443" y="28" type="line"/>
      <point x="64" y="28" type="line"/>
      <point x="69" y="17" type="line"/>
      <point x="189" y="124" type="line" smooth="yes"/>
      <point x="438" y="346"/>
      <point x="502" y="412"/>
      <point x="502" y="522" type="curve" smooth="yes"/>
      <point x="502" y="608"/>
      <point x="439" y="667"/>
      <point x="335" y="667" type="curve" smooth="yes"/>
      <point x="236" y="667"/>
      <point x="148" y="608"/>
      <point x="139" y="478" type="curve"/>
      <point x="143" y="468"/>
      <point x="152" y="463"/>
      <point x="161" y="463" type="curve" smooth="yes"/>
      <point x="175" y="463"/>
      <point x="186" y="475"/>
      <point x="185" y="497" type="curve" smooth="yes"/>
      <point x="182" y="589" type="line"/>
      <point x="176" y="538" type="line"/>
      <point x="191" y="613"/>
      <point x="263" y="647"/>
      <point x="327" y="647" type="curve" smooth="yes"/>
      <point x="426" y="647"/>
      <point x="474" y="593"/>
      <point x="474" y="519" type="curve" smooth="yes"/>
      <point x="474" y="418"/>
      <point x="420" y="358"/>
      <point x="173" y="135" type="curve" smooth="yes"/>
      <point x="48" y="22" type="line"/>
    </contour>
  </outline>
</glyph>
<glyph name="three" format="2">
  <advance width="510"/>
  <unicode hex="0033"/>
  <outline>
    <contour>
      <point x="247" y="-13" type="curve" smooth="yes"/>
      <point x="351" y="-13"/>
      <point x="461" y="45"/>
      <point x="461" y="182" type="curve" smooth="yes"/>
      <point x="461" y="268"/>
      <point x="407" y="329"/>
      <point x="305" y="333" type="curve"/>
      <point x="305" y="329" type="line"/>
      <point x="411" y="338"/>
      <point x="499" y="425"/>
      <point x="499" y="517" type="curve" smooth="yes"/>
      <point x="499" y="601"/>
      <point x="452" y="667"/>
      <point x="342" y="667" type="curve" smooth="yes"/>
      <point x="249" y="667"/>
      <point x="181" y="627"/>
      <point x="154" y="525" type="curve"/>
      <point x="153" y="508"/>
      <point x="162" y="500"/>
      <point x="172" y="500" type="curve" smooth="yes"/>
      <point x="183" y="500"/>
      <point x="192" y="506"/>
      <point x="194" y="521" type="curve" smooth="yes"/>
      <point x="208" y="606" type="line"/>
      <point x="186" y="560" type="line"/>
      <point x="212" y="617"/>
      <point x="277" y="647"/>
      <point x="338" y="647" type="curve" smooth="yes"/>
      <point x="434" y="647"/>
      <point x="471" y="592"/>
      <point x="471" y="516" type="curve" smooth="yes"/>
      <point x="471" y="405"/>
      <point x="365" y="341"/>
      <point x="276" y="341" type="curve" smooth="yes"/>
      <point x="237" y="341" type="line"/>
      <point x="233" y="321" type="line"/>
      <point x="273" y="321" type="line" smooth="yes"/>
      <point x="370" y="321"/>
      <point x="433" y="277"/>
      <point x="433" y="183" type="curve" smooth="yes"/>
      <point x="433" y="63"/>
      <point x="349" y="7"/>
      <point x="251" y="7" type="curve" smooth="yes"/>
      <point x="185" y="7"/>
      <point x="131" y="29"/>
      <point x="100" y="95" type="curve"/>
      <point x="110" y="60" type="line"/>
      <point x="114" y="150" type="line"/>
      <point x="115" y="162"/>
      <point x="109" y="171"/>
      <point x="96" y="171" type="curve" smooth="yes"/>
      <point x="88" y="171"/>
      <point x="80" y="166"/>
      <point x="77" y="156" type="curve"/>
      <point x="71" y="39"/>
      <point x="149" y="-13"/>
    </contour>
  </outline>
</glyph>
<glyph name="five" format="2">
  <advance width="510"/>
  <unicode hex="0035"/>
  <outline>
    <contour>
      <point x="245" y="-13" type="curve" smooth="yes"/>
      <point x="362" y="-13"/>
      <point x="467" y="61"/>
      <point x="467" y="216" type="curve" smooth="yes"/>
      <point x="467" y="325"/>
      <point x="402" y="394"/>
      <point x="299" y="394" type="curve" smooth="yes"/>
      <point x="249" y="394"/>
      <point x="209" y="384"/>
      <point x="178" y="371" type="curve"/>
      <point x="183" y="357" type="line"/>
      <point x="259" y="642" type="line"/>
      <point x="246" y="626" type="line"/>
      <point x="527" y="626" type="line"/>
      <point x="533" y="654" type="line"/>
      <point x="242" y="654" type="line"/>
      <point x="163" y="354" type="line"/>
      <point x="178" y="350" type="line"/>
      <point x="214" y="365"/>
      <point x="251" y="374"/>
      <point x="293" y="374" type="curve" smooth="yes"/>
      <point x="372" y="374"/>
      <point x="439" y="326"/>
      <point x="439" y="215" type="curve" smooth="yes"/>
      <point x="439" y="75"/>
      <point x="356" y="7"/>
      <point x="246" y="7" type="curve" smooth="yes"/>
      <point x="187" y="7"/>
      <point x="149" y="28"/>
      <point x="119" y="81" type="curve"/>
      <point x="123" y="61" type="line"/>
      <point x="127" y="148" type="line"/>
      <point x="128" y="160"/>
      <point x="122" y="168"/>
      <point x="109" y="168" type="curve" smooth="yes"/>
      <point x="101" y="168"/>
      <point x="94" y="164"/>
      <point x="91" y="154" type="curve"/>
      <point x="85" y="38"/>
      <point x="154" y="-13"/>
    </contour>
  </outline>
</glyph>
<glyph name="six" format="2">
  <advance width="510"/>
  <unicode hex="0036"/>
  <outline>
    <contour>
      <point x="265" y="-13" type="curve" smooth="yes"/>
      <point x="385" y="-13"/>
      <point x="470" y="78"/>
      <point x="470" y="202" type="curve" smooth="yes"/>
      <point x="470" y="317"/>
      <point x="408" y="385"/>
      <point x="296" y="385" type="curve" smooth="yes"/>
      <point x="224" y="385"/>
      <point x="162" y="359"/>
      <point x="114" y="308" type="curve"/>
      <point x="119" y="294" type="line"/>
      <point x="166" y="341"/>
      <point x="226" y="365"/>
      <point x="291" y="365" type="curve" smooth="yes"/>
      <point x="388" y="365"/>
      <point x="442" y="308"/>
      <point x="442" y="203" type="curve" smooth="yes"/>
      <point x="442" y="83"/>
      <point x="363" y="7"/>
      <point x="268" y="7" type="curve" smooth="yes"/>
      <point x="158" y="7"/>
      <point x="117" y="103"/>
      <point x="117" y="201" type="curve" smooth="yes"/>
      <point x="117" y="447"/>
      <point x="300" y="628"/>
      <point x="548" y="651" type="curve"/>
      <point x="547" y="667" type="line"/>
      <point x="290" y="655"/>
      <point x="89" y="459"/>
      <point x="89" y="199" type="curve" smooth="yes"/>
      <point x="89" y="77"/>
      <point x="150" y="-13"/>
    </contour>
  </outline>
</glyph>
<glyph name="seven" format="2">
  <advance width="510"/>
  <unicode hex="0037"/>
  <outline>
    <contour>
      <point x="94" y="5" type="line"/>
      <point x="100" y="0" type="line"/>
      <point x="126" y="0" type="line"/>
      <point x="512" y="634" type="line"/>
      <point x="516" y="654" type="line"/>
      <point x="137" y="654" type="line"/>
      <point x="131" y="626" type="line"/>
      <point x="500" y="626" type="line"/>
      <point x="495" y="640" type="line"/>
    </contour>
  </outline>
</glyph>
<glyph name="eight" format="2">
  <advance width="510"/>
  <unicode hex="0038"/>
  <outline>
    <contour>
      <point x="251" y="-13" type="curve" smooth="yes"/>
      <point x="375" y="-13"/>
      <point x="457" y="56"/>
      <point x="457" y="152" type="curve" smooth="yes"/>
      <point x="457" y="224"/>
      <point x="420" y="272"/>
      <point x="306" y="337" type="curve" smooth="yes"/>
      <point x="201" y="398"/>
      <point x="175" y="437"/>
      <point x="175" y="497" type="curve" smooth="yes"/>
      <point x="175" y="582"/>
      <point x="247" y="647"/>
      <point x="337" y="647" type="curve" smooth="yes"/>
      <point x="420" y="647"/>
      <point x="472" y="601"/>
      <point x="472" y="524" type="curve" smooth="yes"/>
      <point x="472" y="448"/>
      <point x="418" y="392"/>
      <point x="294" y="340" type="curve"/>
      <point x="302" y="326" type="line"/>
      <point x="432" y="378"/>
      <point x="496" y="444"/>
      <point x="496" y="526" type="curve" smooth="yes"/>
      <point x="496" y="612"/>
      <point x="433" y="667"/>
      <point x="337" y="667" type="curve" smooth="yes"/>
      <point x="233" y="667"/>
      <point x="149" y="596"/>
      <point x="149" y="494" type="curve" smooth="yes"/>
      <point x="149" y="430"/>
      <point x="177" y="386"/>
      <point x="282" y="322" type="curve" smooth="yes"/>
      <point x="404" y="248"/>
      <point x="431" y="215"/>
      <point x="431" y="149" type="curve" smooth="yes"/>
      <point x="431" y="68"/>
      <point x="367" y="7"/>
      <point x="256" y="7" type="curve" smooth="yes"/>
      <point x="160" y="7"/>
      <point x="102" y="48"/>
      <point x="102" y="130" type="curve" smooth="yes"/>
      <point x="102" y="212"/>
      <point x="164" y="274"/>
      <point x="294" y="321" type="curve"/>
      <point x="286" y="335" type="line"/>
      <point x="144" y="284"/>
      <point x="78" y="217"/>
      <point x="78" y="125" type="curve" smooth="yes"/>
      <point x="78" y="38"/>
      <point x="144" y="-13"/>
    </contour>
  </outline>
</glyph>
<glyph name="nine" format="2">
  <advance width="510"/>
  <unicode hex="0039"/>
  <outline>
    <contour>
      <point x="57" y="4" type="curve"/>
      <point x="62" y="-13" type="line"/>
      <point x="359" y="55"/>
      <point x="497" y="207"/>
      <point x="497" y="451" type="curve" smooth="yes"/>
      <point x="497" y="586"/>
      <point x="436" y="667"/>
      <point x="329" y="667" type="curve" smooth="yes"/>
      <point x="216" y="667"/>
      <point x="122" y="569"/>
      <point x="122" y="452" type="curve" smooth="yes"/>
      <point x="122" y="348"/>
      <point x="189" y="278"/>
      <point x="293" y="278" type="curve" smooth="yes"/>
      <point x="357" y="278"/>
      <point x="414" y="305"/>
      <point x="477" y="353" type="curve"/>
      <point x="468" y="366" type="line"/>
      <point x="414" y="324"/>
      <point x="359" y="298"/>
      <point x="300" y="298" type="curve" smooth="yes"/>
      <point x="207" y="298"/>
      <point x="151" y="357"/>
      <point x="151" y="454" type="curve" smooth="yes"/>
      <point x="151" y="563"/>
      <point x="232" y="647"/>
      <point x="327" y="647" type="curve" smooth="yes"/>
      <point x="419" y="647"/>
      <point x="469" y="575"/>
      <point x="469" y="448" type="curve" smooth="yes"/>
      <point x="469" y="213"/>
      <point x="340" y="73"/>
    </contour>
  </outline>
</glyph>
<glyph name="colon" format="2">
  <advance width="300"/>
  <unicode hex="003A"/>
  <outline>
    <contour>
      <point x="113" y="-5" type="curve" smooth="yes"/>
      <point x="131" y="-5"/>
      <point x="146" y="8"/>
      <point x="146" y="28" type="curve" smooth="yes"/>
      <point x="146" y="42"/>
      <point x="136" y="55"/>
      <point x="119" y="55" type="curve" smooth="yes"/>
      <point x="100" y="55"/>
      <point x="85" y="41"/>
      <point x="85" y="22" type="curve" smooth="yes"/>
      <point x="85" y="9"/>
      <point x="95" y="-5"/>
    </contour>
    <contour>
      <point x="188" y="359" type="curve" smooth="yes"/>
      <point x="206" y="359"/>
      <point x="221" y="372"/>
      <point x="221" y="392" type="curve" smooth="yes"/>
      <point x="221" y="406"/>
      <point x="211" y="419"/>
      <point x="194" y="419" type="curve" smooth="yes"/>
      <point x="175" y="419"/>
      <point x="160" y="405"/>
      <point x="160" y="386" type="curve" smooth="yes"/>
      <point x="160" y="373"/>
      <point x="170" y="359"/>
    </contour>
  </outline>
</glyph>
<glyph name="semicolon" format="2">
  <advance width="300"/>
  <unicode hex="003B"/>
  <outline>
    <contour>
      <point x="188" y="359" type="curve" smooth="yes"/>
      <point x="206" y="359"/>
      <point x="221" y="372"/>
      <point x="221" y="392" type="curve" smooth="yes"/>
      <point x="221" y="406"/>
      <point x="211" y="419"/>
      <point x="194" y="419" type="curve" smooth="yes"/>
      <point x="175" y="419"/>
      <point x="160" y="405"/>
      <point x="160" y="386" type="curve" smooth="yes"/>
      <point x="160" y="373"/>
      <point x="170" y="359"/>
    </contour>
    <contour>
      <point x="11" y="-169" type="line"/>
      <point x="92" y="-129"/>
      <point x="143" y="-49"/>
      <point x="143" y="24" type="curve" smooth="yes"/>
      <point x="143" y="30"/>
      <point x="142" y="36"/>
      <point x="141" y="43" type="curve"/>
      <point x="135" y="50"/>
      <point x="126" y="55"/>
      <point x="114" y="55" type="curve" smooth="yes"/>
      <point x="100" y="55"/>
      <point x="87" y="44"/>
      <point x="87" y="28" type="curve" smooth="yes"/>
      <point x="87" y="16"/>
      <point x="90" y="10"/>
      <point x="103" y="-1" type="curve" smooth="yes"/>
      <point x="126" y="-20" type="line"/>
      <point x="120" y="-7" type="line"/>
      <point x="104" y="-71"/>
      <point x="66" y="-121"/>
      <point x="4" y="-157" type="curve"/>
    </contour>
  </outline>
</glyph>
<glyph name="less" format="2">
  <advance width="530"/>
  <unicode hex="003C"/>
  <outline>
    <contour>
      <point x="88" y="327" type="line"/>
      <point x="451" y="108" type="line"/>
      <point x="461" y="125" type="line"/>
      <point x="98" y="344" type="line"/>
      <point x="98" y="328" type="line"/>
      <point x="461" y="547" type="line"/>
      <point x="451" y="564" type="line"/>
      <point x="88" y="346" type="line"/>
    </contour>
  </outline>
</glyph>
<glyph name="equal" format="2">
  <advance width="530"/>
  <unicode hex="003D"/>
  <outline>
    <contour>
      <point x="518" y="225" type="line"/>
      <point x="518" y="247" type="line"/>
      <point x="78" y="247" type="line"/>
      <point x="78" y="225" type="line"/>
    </contour>
    <contour>
      <point x="518" y="425" type="line"/>
      <point x="518" y="447" type="line"/>
      <point x="78" y="447" type="line"/>
      <point x="78" y="425" type="line"/>
    </contour>
  </outline>
</glyph>
<glyph name="greater" format="2">
  <advance width="530"/>
  <unicode hex="003E"/>
  <outline>
    <contour>
      <point x="462" y="345" type="line"/>
      <point x="99" y="564" type="line"/>
      <point x="89" y="547" type="line"/>
      <point x="452" y="328" type="line"/>
      <point x="452" y="344" type="line"/>
      <point x="89" y="125" type="line"/>
      <point x="99" y="108" type="line"/>
      <point x="462" y="326" type="line"/>
    </contour>
  </outline>
</glyph>
<glyph name="O" format="2">
  <advance width="654"/>
  <unicode hex="004F"/>
  <anchor x="398" y="682" name="aboveUC"/>
  <anchor x="310" y="-22" name="belowLC"/>
  <anchor x="613" y="680" name="hornLC"/>
  <anchor x="396" y="0" name="ogonek"/>
  <outline>
    <contour>
      <point x="303" y="-15" type="curve" smooth="yes"/>
      <point x="494" y="-15"/>
      <point x="644" y="169"/>
      <point x="644" y="418" type="curve" smooth="yes"/>
      <point x="644" y="573"/>
      <point x="569" y="692"/>
      <point x="405" y="692" type="curve" smooth="yes"/>
      <point x="219" y="692"/>
      <point x="64" y="502"/>
      <point x="64" y="259" type="curve" smooth="yes"/>
      <point x="64" y="104"/>
      <point x="146" y="-15"/>
    </contour>
    <contour>
      <point x="307" y="7" type="curve" smooth="yes"/>
      <point x="162" y="7"/>
      <point x="96" y="121"/>
      <point x="96" y="271" type="curve" smooth="yes"/>
      <point x="96" y="477"/>
      <point x="228" y="670"/>
      <point x="401" y="670" type="curve" smooth="yes"/>
      <point x="548" y="670"/>
      <point x="611" y="562"/>
      <point x="611" y="405" type="curve" smooth="yes"/>
      <point x="611" y="183"/>
      <point x="476" y="7"/>
    </contour>
  </outline>
</glyph>
<glyph name="Q" format="2">
  <advance width="654"/>
  <unicode hex="0051"/>
  <anchor x="392" y="682" name="aboveUC"/>
  <anchor x="310" y="-22" name="belowLC"/>
  <anchor x="613" y="680" name="hornLC"/>
  <anchor x="396" y="0" name="ogonek"/>
  <outline>
    <contour>
      <point x="484" y="-245" type="curve" smooth="yes"/>
      <point x="562" y="-245"/>
      <point x="612" y="-218"/>
      <point x="654" y="-181" type="curve"/>
      <point x="646" y="-166" type="line"/>
      <point x="599" y="-200"/>
      <point x="558" y="-219"/>
      <point x="496" y="-219" type="curve" smooth="yes"/>
      <point x="378" y="-219"/>
      <point x="302" y="-152"/>
      <point x="302" y="0" type="curve"/>
      <point x="273" y="0" type="line"/>
      <point x="273" y="-155"/>
      <point x="351" y="-245"/>
    </contour>
    <contour>
      <point x="303" y="-15" type="curve" smooth="yes"/>
      <point x="494" y="-15"/>
      <point x="644" y="169"/>
      <point x="644" y="418" type="curve" smooth="yes"/>
      <point x="644" y="573"/>
      <point x="569" y="692"/>
      <point x="405" y="692" type="curve" smooth="yes"/>
      <point x="219" y="692"/>
      <point x="64" y="502"/>
      <point x="64" y="259" type="curve" smooth="yes"/>
      <point x="64" y="104"/>
      <point x="146" y="-15"/>
    </contour>
    <contour>
      <point x="307" y="7" type="curve" smooth="yes"/>
      <point x="162" y="7"/>
      <point x="96" y="121"/>
      <point x="96" y="271" type="curve" smooth="yes"/>
      <point x="96" y="477"/>
      <point x="228" y="670"/>
      <point x="401" y="670" type="curve" smooth="yes"/>
      <point x="548" y="670"/>
      <point x="611" y="562"/>
      <point x="611" y="405" type="curve" smooth="yes"/>
      <point x="611" y="183"/>
      <point x="476" y="7"/>
    </contour>
  </outline>
</glyph>
<glyph name="V" format="2">
  <advance width="610"/>
  <unicode hex="0056"/>
  <anchor x="396" y="682" name="aboveUC"/>
  <anchor x="269" y="-22" name="belowLC"/>
  <outline>
    <contour>
      <point x="68" y="657" type="line"/>
      <point x="173" y="650" type="line"/>
      <point x="183" y="650" type="line"/>
      <point x="307" y="657" type="line"/>
      <point x="310" y="677" type="line"/>
      <point x="71" y="677" type="line"/>
    </contour>
    <contour>
      <point x="262" y="-10" type="line"/>
      <point x="282" y="-10" type="line"/>
      <point x="639" y="677" type="line"/>
      <point x="611" y="677" type="line"/>
      <point x="272" y="14" type="line"/>
      <point x="286" y="14" type="line"/>
      <point x="189" y="677" type="line"/>
      <point x="158" y="677" type="line"/>
    </contour>
    <contour>
      <point x="489" y="657" type="line"/>
      <point x="606" y="650" type="line"/>
      <point x="620" y="650" type="line"/>
      <point x="717" y="657" type="line"/>
      <point x="720" y="677" type="line"/>
      <point x="492" y="677" type="line"/>
    </contour>
  </outline>
</glyph>
<glyph name="Z" format="2">
  <advance width="542"/>
  <unicode hex="005A"/>
  <anchor x="348" y="682" name="aboveUC"/>
  <anchor x="250" y="-22" name="belowLC"/>
  <outline>
    <contour>
      <point x="-6" y="0" type="line"/>
      <point x="15" y="0" type="line"/>
      <point x="574" y="657" type="line"/>
      <point x="578" y="677" type="line"/>
      <point x="559" y="677" type="line"/>
      <point x="-2" y="20" type="line"/>
    </contour>
    <contour>
      <point x="86" y="514" type="line"/>
      <point x="108" y="514" type="line"/>
      <point x="161" y="677" type="line"/>
      <point x="141" y="655" type="line"/>
      <point x="568" y="655" type="line"/>
      <point x="572" y="677" type="line"/>
      <point x="125" y="677" type="line"/>
    </contour>
    <contour>
      <point x="4" y="0" type="line"/>
      <point x="479" y="0" type="line"/>
      <point x="520" y="163" type="line"/>
      <point x="498" y="163" type="line"/>
      <point x="443" y="0" type="line"/>
      <point x="463" y="22" type="line"/>
      <point x="8" y="22" type="line"/>
    </contour>
  </outline>
</glyph>
<glyph name="bracketright" format="2">
  <advance width="291"/>
  <unicode hex="005D"/>
  <outline>
    <contour>
      <point x="297" y="715" type="curve"/>
      <point x="265" y="715" type="line"/>
      <point x="249" y="610"/>
      <point x="229" y="503"/>
      <point x="209" y="398" type="curve" smooth="yes"/>
      <point x="165" y="158" type="line" smooth="yes"/>
      <point x="145" y="51"/>
      <point x="125" y="-56"/>
      <point x="103" y="-159" type="curve"/>
      <point x="135" y="-159" type="line"/>
      <point x="151" y="-54"/>
      <point x="171" y="53"/>
      <point x="191" y="158" type="curve" smooth="yes"/>
      <point x="235" y="398" type="line" smooth="yes"/>
      <point x="255" y="505"/>
      <point x="275" y="612"/>
    </contour>
    <contour>
      <point x="281" y="715" type="line"/>
      <point x="150" y="715" type="line"/>
      <point x="146" y="693" type="line"/>
      <point x="262" y="687" type="line"/>
      <point x="276" y="687" type="line"/>
    </contour>
    <contour>
      <point x="124" y="-131" type="line"/>
      <point x="110" y="-131" type="line"/>
      <point x="-8" y="-137" type="line"/>
      <point x="-12" y="-159" type="line"/>
      <point x="119" y="-159" type="line"/>
    </contour>
  </outline>
</glyph>
<glyph name="underscore" format="2">
  <advance width="510"/>
  <unicode hex="005F"/>
  <outline>
    <contour>
      <point x="0" y="-26" type="line"/>
      <point x="430" y="-26" type="line"/>
      <point x="430" y="0" type="line"/>
      <point x="0" y="0" type="line"/>
    </contour>
  </outline>
</glyph>
<glyph name="grave" format="2">
  <advance width="400"/>
  <unicode hex="0060"/>
  <anchor x="352" y="500" name="_aboveLC"/>
  <anchor x="395" y="727" name="aboveLC"/>
  <outline>
    <contour>
      <point x="370" y="550" type="line"/>
      <point x="342" y="601"/>
      <point x="301" y="673"/>
      <point x="279" y="711" type="curve" smooth="yes"/>
      <point x="265" y="736"/>
      <point x="258" y="747"/>
      <point x="248" y="747" type="curve" smooth="yes"/>
      <point x="239" y="748"/>
      <point x="230" y="744"/>
      <point x="230" y="733" type="curve" smooth="yes"/>
      <point x="229" y="723"/>
      <point x="238" y="712"/>
      <point x="254" y="689" type="curve" smooth="yes"/>
      <point x="277" y="655"/>
      <point x="324" y="588"/>
      <point x="357" y="543" type="curve"/>
    </contour>
  </outline>
</glyph>
<glyph name="o" format="2">
  <advance width="484"/>
  <unicode hex="006F"/>
  <anchor x="302" y="500" name="aboveLC"/>
  <anchor x="226" y="-22" name="belowLC"/>
  <anchor x="441" y="489" name="hornLC"/>
  <anchor x="288" y="1" name="ogonek"/>
  <outline>
    <contour>
      <point x="215" y="-13" type="curve" smooth="yes"/>
      <point x="348" y="-13"/>
      <point x="452" y="139"/>
      <point x="452" y="306" type="curve" smooth="yes"/>
      <point x="452" y="433"/>
      <point x="382" y="483"/>
      <point x="303" y="483" type="curve" smooth="yes"/>
      <point x="165" y="483"/>
      <point x="66" y="313"/>
      <point x="66" y="161" type="curve" smooth="yes"/>
      <point x="66" y="32"/>
      <point x="147" y="-13"/>
    </contour>
    <contour>
      <point x="218" y="7" type="curve" smooth="yes"/>
      <point x="150" y="7"/>
      <point x="94" y="56"/>
      <point x="94" y="166" type="curve" smooth="yes"/>
      <point x="94" y="298"/>
      <point x="177" y="463"/>
      <point x="302" y="463" type="curve" smooth="yes"/>
      <point x="374" y="463"/>
      <point x="424" y="413"/>
      <point x="424" y="298" type="curve" smooth="yes"/>
      <point x="424" y="165"/>
      <point x="336" y="7"/>
    </contour>
  </outline>
</glyph>
<glyph name="exclamdown" format="2">
  <advance width="290"/>
  <unicode hex="00A1"/>
  <outline>
    <contour>
      <point x="184" y="318" type="line"/>
      <point x="171" y="318" type="line"/>
      <point x="75" y="-78"/>
      <point x="52" y="-170"/>
      <point x="51" y="-198" type="curve" smooth="yes"/>
      <point x="51" y="-206"/>
      <point x="56" y="-212"/>
      <point x="67" y="-212" type="curve" smooth="yes"/>
      <point x="78" y="-212"/>
      <point x="87" y="-206"/>
      <point x="90" y="-189" type="curve" smooth="yes"/>
      <point x="101" y="-130"/>
      <point x="116" y="-58"/>
      <point x="138" y="64" type="curve" smooth="yes"/>
    </contour>
    <contour>
      <point x="237" y="456" type="curve" smooth="yes"/>
      <point x="237" y="469"/>
      <point x="227" y="483"/>
      <point x="209" y="483" type="curve" smooth="yes"/>
      <point x="191" y="483"/>
      <point x="176" y="470"/>
      <point x="176" y="450" type="curve" smooth="yes"/>
      <point x="176" y="436"/>
      <point x="186" y="423"/>
      <point x="203" y="423" type="curve" smooth="yes"/>
      <point x="222" y="423"/>
      <point x="237" y="437"/>
    </contour>
  </outline>
</glyph>
<glyph name="dieresis" format="2">
  <advance width="400"/>
  <unicode hex="00A8"/>
  <anchor x="276" y="505" name="_aboveLC"/>
  <anchor x="318" y="701" name="aboveLC"/>
  <outline>
    <contour>
      <point x="219" y="664" type="curve" smooth="yes"/>
      <point x="234" y="664"/>
      <point x="251" y="677"/>
      <point x="251" y="698" type="curve" smooth="yes"/>
      <point x="251" y="714"/>
      <point x="239" y="723"/>
      <point x="225" y="723" type="curve" smooth="yes"/>
      <point x="210" y="723"/>
      <point x="193" y="710"/>
      <point x="193" y="690" type="curve" smooth="yes"/>
      <point x="193" y="673"/>
      <point x="205" y="664"/>
    </contour>
    <contour>
      <point x="396" y="664" type="curve" smooth="yes"/>
      <point x="411" y="664"/>
      <point x="428" y="677"/>
      <point x="428" y="698" type="curve" smooth="yes"/>
      <point x="428" y="714"/>
      <point x="416" y="723"/>
      <point x="402" y="723" type="curve" smooth="yes"/>
      <point x="387" y="723"/>
      <point x="370" y="710"/>
      <point x="370" y="690" type="curve" smooth="yes"/>
      <point x="370" y="673"/>
      <point x="382" y="664"/>
    </contour>
  </outline>
</glyph>
<glyph name="guillemotleft" format="2">
  <advance width="545"/>
  <unicode hex="00AB"/>
  <outline>
    <contour>
      <point x="259" y="48" type="line"/>
      <point x="273" y="61" type="line"/>
      <point x="101" y="262" type="line"/>
      <point x="98" y="243" type="line"/>
      <point x="330" y="442" type="line"/>
      <point x="319" y="457" type="line"/>
      <point x="71" y="260" type="line"/>
      <point x="68" y="245" type="line"/>
    </contour>
    <contour>
      <point x="459" y="48" type="line"/>
      <point x="473" y="61" type="line"/>
      <point x="301" y="262" type="line"/>
      <point x="298" y="243" type="line"/>
      <point x="530" y="442" type="line"/>
      <point x="519" y="457" type="line"/>
      <point x="271" y="260" type="line"/>
      <point x="268" y="245" type="line"/>
    </contour>
  </outline>
</glyph>
<glyph name="macron" format="2">
  <advance width="400"/>
  <unicode hex="00AF"/>
  <anchor x="273" y="500" name="_aboveLC"/>
  <anchor x="308" y="667" name="aboveLC"/>
  <outline>
    <contour>
      <point x="191" y="631" type="line"/>
      <point x="411" y="631" type="line"/>
      <point x="417" y="657" type="line"/>
      <point x="197" y="657" type="line"/>
    </contour>
  </outline>
</glyph>
<glyph name="plusminus" format="2">
  <advance width="530"/>
  <unicode hex="00B1"/>
  <outline>
    <contour>
      <point x="249" y="103" type="line"/>
      <point x="273" y="103" type="line"/>
      <point x="273" y="564" type="line"/>
      <point x="249" y="564" type="line"/>
    </contour>
    <contour>
      <point x="481" y="325" type="line"/>
      <point x="481" y="347" type="line"/>
      <point x="41" y="347" type="line"/>
      <point x="41" y="325" type="line"/>
    </contour>
    <contour>
      <point x="481" y="0" type="line"/>
      <point x="481" y="22" type="line"/>
      <point x="41" y="22" type="line"/>
      <point x="41" y="0" type="line"/>
    </contour>
  </outline>
</glyph>
<glyph name="acute" format="2">
  <advance width="400"/>
  <unicode hex="00B4"/>
  <anchor x="226" y="500" name="_aboveLC"/>
  <anchor x="279" y="747" name="aboveLC"/>
  <outline>
    <contour>
      <point x="230" y="550" type="curve"/>
      <point x="243" y="543" type="line"/>
      <point x="276" y="588"/>
      <point x="323" y="655"/>
      <point x="346" y="689" type="curve" smooth="yes"/>
      <point x="362" y="712"/>
      <point x="371" y="723"/>
      <point x="370" y="733" type="curve" smooth="yes"/>
      <point x="370" y="744"/>
      <point x="361" y="748"/>
      <point x="352" y="747" type="curve" smooth="yes"/>
      <point x="342" y="747"/>
      <point x="335" y="736"/>
      <point x="321" y="711" type="curve" smooth="yes"/>
      <point x="299" y="673"/>
      <point x="258" y="601"/>
    </contour>
  </outline>
</glyph>
<glyph name="paragraph" format="2">
  <advance width="602"/>
  <unicode hex="00B6"/>
  <outline>
    <contour>
      <point x="546" y="677" type="line"/>
      <point x="541" y="650" type="line"/>
      <point x="548" y="650" type="line"/>
      <point x="667" y="657" type="line"/>
      <point x="670" y="677" type="line"/>
    </contour>
    <contour>
      <point x="386" y="-130" type="line"/>
      <point x="414" y="-130" type="line"/>
      <point x="431" y="-28"/>
      <point x="450" y="76"/>
      <point x="469" y="180" type="curve" smooth="yes"/>
      <point x="561" y="677" type="line"/>
      <point x="535" y="677" type="line"/>
    </contour>
    <contour>
      <point x="458" y="653" type="line"/>
      <point x="542" y="653" type="line"/>
      <point x="546" y="677" type="line"/>
      <point x="485" y="677" type="line" smooth="yes"/>
      <point x="247" y="677"/>
      <point x="134" y="569"/>
      <point x="134" y="414" type="curve" smooth="yes"/>
      <point x="134" y="262"/>
      <point x="236" y="193"/>
      <point x="370" y="178" type="curve"/>
    </contour>
  </outline>
</glyph>
<glyph name="cedilla" format="2">
  <advance width="400"/>
  <unicode hex="00B8"/>
  <anchor x="153" y="0" name="_baseLC"/>
  <outline>
    <contour>
      <point x="111" y="-84" type="line"/>
      <point x="170" y="-101"/>
      <point x="194" y="-115"/>
      <point x="194" y="-151" type="curve" smooth="yes"/>
      <point x="194" y="-180"/>
      <point x="164" y="-200"/>
      <point x="124" y="-200" type="curve" smooth="yes"/>
      <point x="99" y="-200"/>
      <point x="76" y="-195"/>
      <point x="57" y="-187" type="curve"/>
      <point x="51" y="-201" type="line"/>
      <point x="70" y="-212"/>
      <point x="94" y="-218"/>
      <point x="124" y="-218" type="curve" smooth="yes"/>
      <point x="181" y="-218"/>
      <point x="220" y="-192"/>
      <point x="220" y="-150" type="curve" smooth="yes"/>
      <point x="220" y="-110"/>
      <point x="186" y="-89"/>
      <point x="127" y="-70" type="curve"/>
      <point x="130" y="-81" type="line"/>
      <point x="170" y="0" type="line"/>
      <point x="154" y="0" type="line"/>
    </contour>
  </outline>
</glyph>
<glyph name="guillemotright" format="2">
  <advance width="545"/>
  <unicode hex="00BB"/>
  <outline>
    <contour>
      <point x="319" y="457" type="line"/>
      <point x="305" y="444" type="line"/>
      <point x="477" y="243" type="line"/>
      <point x="480" y="262" type="line"/>
      <point x="248" y="63" type="line"/>
      <point x="259" y="48" type="line"/>
      <point x="507" y="245" type="line"/>
      <point x="510" y="260" type="line"/>
    </contour>
    <contour>
      <point x="119" y="457" type="line"/>
      <point x="105" y="444" type="line"/>
      <point x="277" y="243" type="line"/>
      <point x="280" y="262" type="line"/>
      <point x="48" y="63" type="line"/>
      <point x="59" y="48" type="line"/>
      <point x="307" y="245" type="line"/>
      <point x="310" y="260" type="line"/>
    </contour>
  </outline>
</glyph>
<glyph name="onequarter" format="2">
  <advance width="870"/>
  <unicode hex="00BC"/>
  <outline>
    <contour>
      <point x="237" y="-12" type="line"/>
      <point x="744" y="653" type="line"/>
      <point x="728" y="665" type="line"/>
      <point x="220" y="0" type="line"/>
    </contour>
    <contour>
      <point x="292" y="265" type="line"/>
      <point x="295" y="280" type="line"/>
      <point x="200" y="286" type="line"/>
      <point x="181" y="286" type="line"/>
      <point x="86" y="280" type="line"/>
      <point x="83" y="265" type="line"/>
    </contour>
    <contour>
      <point x="198" y="265" type="line"/>
      <point x="261" y="572" type="line"/>
      <point x="281" y="660" type="line"/>
      <point x="274" y="667" type="line"/>
      <point x="160" y="637" type="line"/>
      <point x="157" y="620" type="line"/>
      <point x="259" y="638" type="line"/>
      <point x="251" y="648" type="line"/>
      <point x="173" y="265" type="line"/>
    </contour>
    <contour>
      <point x="833" y="115" type="line"/>
      <point x="837" y="138" type="line"/>
      <point x="565" y="138" type="line"/>
      <point x="565" y="128" type="line"/>
      <point x="794" y="372" type="line"/>
      <point x="784" y="372" type="line"/>
      <point x="707" y="-10" type="line"/>
      <point x="731" y="-10" type="line"/>
      <point x="816" y="400" type="line"/>
      <point x="798" y="400" type="line"/>
      <point x="548" y="133" type="line"/>
      <point x="544" y="115" type="line"/>
    </contour>
  </outline>
</glyph>
<glyph name="onehalf" format="2">
  <advance width="870"/>
  <unicode hex="00BD"/>
  <outline>
    <contour>
      <point x="217" y="-12" type="line"/>
      <point x="724" y="653" type="line"/>
      <point x="708" y="665" type="line"/>
      <point x="200" y="0" type="line"/>
    </contour>
    <contour>
      <point x="292" y="265" type="line"/>
      <point x="295" y="280" type="line"/>
      <point x="200" y="286" type="line"/>
      <point x="181" y="286" type="line"/>
      <point x="86" y="280" type="line"/>
      <point x="83" y="265" type="line"/>
    </contour>
    <contour>
      <point x="198" y="265" type="line"/>
      <point x="261" y="572" type="line"/>
      <point x="281" y="660" type="line"/>
      <point x="274" y="667" type="line"/>
      <point x="160" y="637" type="line"/>
      <point x="157" y="620" type="line"/>
      <point x="259" y="638" type="line"/>
      <point x="251" y="648" type="line"/>
      <point x="173" y="265" type="line"/>
    </contour>
    <contour>
      <point x="545" y="0" type="line"/>
      <point x="781" y="0" type="line"/>
      <point x="787" y="27" type="line"/>
      <point x="569" y="27" type="line"/>
      <point x="572" y="22" type="line"/>
      <point x="782" y="208"/>
      <point x="824" y="248"/>
      <point x="824" y="312" type="curve" smooth="yes"/>
      <point x="824" y="365"/>
      <point x="788" y="402"/>
      <point x="720" y="402" type="curve" smooth="yes"/>
      <point x="658" y="402"/>
      <point x="608" y="369"/>
      <point x="600" y="293" type="curve"/>
      <point x="602" y="285"/>
      <point x="609" y="279"/>
      <point x="617" y="279" type="curve" smooth="yes"/>
      <point x="628" y="279"/>
      <point x="636" y="287"/>
      <point x="637" y="309" type="curve" smooth="yes"/>
      <point x="638" y="365" type="line"/>
      <point x="627" y="330" type="line"/>
      <point x="641" y="368"/>
      <point x="678" y="385"/>
      <point x="713" y="385" type="curve" smooth="yes"/>
      <point x="767" y="385"/>
      <point x="796" y="354"/>
      <point x="796" y="308" type="curve" smooth="yes"/>
      <point x="796" y="254"/>
      <point x="766" y="217"/>
      <point x="549" y="22" type="curve"/>
    </contour>
  </outline>
</glyph>
<glyph name="threequarters" format="2">
  <advance width="870"/>
  <unicode hex="00BE"/>
  <outline>
    <contour>
      <point x="247" y="-12" type="line"/>
      <point x="754" y="653" type="line"/>
      <point x="738" y="665" type="line"/>
      <point x="230" y="0" type="line"/>
    </contour>
    <contour>
      <point x="188" y="256" type="curve" smooth="yes"/>
      <point x="259" y="256"/>
      <point x="323" y="293"/>
      <point x="323" y="375" type="curve" smooth="yes"/>
      <point x="323" y="427"/>
      <point x="288" y="464"/>
      <point x="226" y="468" type="curve"/>
      <point x="225" y="464" type="line"/>
      <point x="290" y="471"/>
      <point x="344" y="517"/>
      <point x="344" y="577" type="curve" smooth="yes"/>
      <point x="344" y="628"/>
      <point x="313" y="667"/>
      <point x="247" y="667" type="curve" smooth="yes"/>
      <point x="187" y="667"/>
      <point x="146" y="640"/>
      <point x="131" y="580" type="curve"/>
      <point x="131" y="568"/>
      <point x="139" y="562"/>
      <point x="147" y="562" type="curve" smooth="yes"/>
      <point x="158" y="562"/>
      <point x="164" y="569"/>
      <point x="166" y="583" type="curve" smooth="yes"/>
      <point x="174" y="636" type="line"/>
      <point x="159" y="609" type="line"/>
      <point x="178" y="636"/>
      <point x="210" y="650"/>
      <point x="243" y="650" type="curve" smooth="yes"/>
      <point x="292" y="650"/>
      <point x="317" y="621"/>
      <point x="317" y="575" type="curve" smooth="yes"/>
      <point x="317" y="510"/>
      <point x="259" y="475"/>
      <point x="184" y="475" type="curve"/>
      <point x="180" y="458" type="line"/>
      <point x="260" y="458"/>
      <point x="293" y="430"/>
      <point x="293" y="376" type="curve" smooth="yes"/>
      <point x="293" y="307"/>
      <point x="247" y="273"/>
      <point x="190" y="273" type="curve" smooth="yes"/>
      <point x="155" y="273"/>
      <point x="125" y="283"/>
      <point x="105" y="316" type="curve"/>
      <point x="115" y="294" type="line"/>
      <point x="116" y="350" type="line" smooth="yes"/>
      <point x="116" y="363"/>
      <point x="112" y="371"/>
      <point x="100" y="371" type="curve" smooth="yes"/>
      <point x="93" y="371"/>
      <point x="87" y="368"/>
      <point x="84" y="360" type="curve"/>
      <point x="82" y="286"/>
      <point x="128" y="256"/>
    </contour>
    <contour>
      <point x="833" y="115" type="line"/>
      <point x="837" y="138" type="line"/>
      <point x="565" y="138" type="line"/>
      <point x="565" y="128" type="line"/>
      <point x="794" y="372" type="line"/>
      <point x="784" y="372" type="line"/>
      <point x="707" y="-10" type="line"/>
      <point x="731" y="-10" type="line"/>
      <point x="816" y="400" type="line"/>
      <point x="798" y="400" type="line"/>
      <point x="548" y="133" type="line"/>
      <point x="544" y="115" type="line"/>
    </contour>
  </outline>
</glyph>
<glyph name="questiondown" format="2">
  <advance width="383"/>
  <unicode hex="00BF"/>
  <outline>
    <contour>
      <point x="342" y="453" type="curve" smooth="yes"/>
      <point x="342" y="468"/>
      <point x="330" y="483"/>
      <point x="311" y="483" type="curve" smooth="yes"/>
      <point x="292" y="483"/>
      <point x="280" y="468"/>
      <point x="280" y="453" type="curve" smooth="yes"/>
      <point x="280" y="436"/>
      <point x="292" y="423"/>
      <point x="311" y="423" type="curve" smooth="yes"/>
      <point x="330" y="423"/>
      <point x="342" y="436"/>
    </contour>
    <contour>
      <point x="313" y="327" type="curve"/>
      <point x="293" y="328" type="line"/>
      <point x="288" y="212"/>
      <point x="273" y="191"/>
      <point x="248" y="166" type="curve" smooth="yes"/>
      <point x="227" y="145"/>
      <point x="196" y="121"/>
      <point x="139" y="87" type="curve" smooth="yes"/>
      <point x="43" y="30"/>
      <point x="-11" y="-4"/>
      <point x="-11" y="-91" type="curve" smooth="yes"/>
      <point x="-11" y="-171"/>
      <point x="44" y="-217"/>
      <point x="128" y="-217" type="curve" smooth="yes"/>
      <point x="206" y="-217"/>
      <point x="256" y="-183"/>
      <point x="266" y="-144" type="curve"/>
      <point x="266" y="-135"/>
      <point x="261" y="-125"/>
      <point x="249" y="-125" type="curve" smooth="yes"/>
      <point x="238" y="-125"/>
      <point x="229" y="-130"/>
      <point x="222" y="-145" type="curve" smooth="yes"/>
      <point x="194" y="-201" type="line"/>
      <point x="218" y="-179" type="line"/>
      <point x="195" y="-193"/>
      <point x="162" y="-197"/>
      <point x="132" y="-197" type="curve" smooth="yes"/>
      <point x="57" y="-197"/>
      <point x="16" y="-155"/>
      <point x="16" y="-92" type="curve" smooth="yes"/>
      <point x="16" y="-28"/>
      <point x="48" y="0"/>
      <point x="151" y="63" type="curve" smooth="yes"/>
      <point x="211" y="100"/>
      <point x="248" y="128"/>
      <point x="264" y="144" type="curve" smooth="yes"/>
      <point x="297" y="177"/>
      <point x="309" y="207"/>
    </contour>
  </outline>
</glyph>
<glyph name="Agrave" format="2">
  <advance width="651"/>
  <unicode hex="00C0"/>
  <anchor x="431" y="859" name="aboveUC"/>
  <anchor x="274" y="-22" name="belowLC"/>
  <anchor x="515" y="0" name="ogonek"/>
  <outline>
    <contour>
      <point x="-27" y="0" type="line"/>
      <point x="171" y="0" type="line"/>
      <point x="175" y="20" type="line"/>
      <point x="79" y="26" type="line"/>
      <point x="65" y="26" type="line"/>
      <point x="-23" y="20" type="line"/>
    </contour>
    <contour>
      <point x="46" y="0" type="line"/>
      <point x="73" y="0" type="line"/>
      <point x="409" y="660" type="line"/>
      <point x="390" y="650" type="line"/>
      <point x="475" y="0" type="line"/>
      <point x="509" y="0" type="line"/>
      <point x="416" y="677" type="line"/>
      <point x="396" y="677" type="line"/>
    </contour>
    <contour>
      <point x="181" y="247" type="line"/>
      <point x="466" y="247" type="line"/>
      <point x="461" y="267" type="line"/>
      <point x="193" y="267" type="line"/>
    </contour>
    <contour>
      <point x="356" y="0" type="line"/>
      <point x="604" y="0" type="line"/>
      <point x="608" y="20" type="line"/>
      <point x="495" y="26" type="line"/>
      <point x="481" y="26" type="line"/>
      <point x="360" y="20" type="line"/>
    </contour>
    <contour>
      <point x="429" y="741" type="line"/>
      <point x="393" y="771"/>
      <point x="357" y="802"/>
      <point x="326" y="828" type="curve" smooth="yes"/>
      <point x="298" y="852"/>
      <point x="289" y="859"/>
      <point x="279" y="859" type="curve" smooth="yes"/>
      <point x="269" y="859"/>
      <point x="261" y="852"/>
      <point x="261" y="842" type="curve" smooth="yes"/>
      <point x="261" y="830"/>
      <point x="274" y="823"/>
      <point x="307" y="801" type="curve" smooth="yes"/>
      <point x="343" y="778"/>
      <point x="382" y="753"/>
      <point x="421" y="730" type="curve"/>
    </contour>
  </outline>
</glyph>
<glyph name="Aacute" format="2">
  <advance width="651"/>
  <unicode hex="00C1"/>
  <anchor x="458" y="842" name="aboveUC"/>
  <anchor x="274" y="-22" name="belowLC"/>
  <anchor x="515" y="0" name="ogonek"/>
  <outline>
    <contour>
      <point x="-27" y="0" type="line"/>
      <point x="171" y="0" type="line"/>
      <point x="175" y="20" type="line"/>
      <point x="79" y="26" type="line"/>
      <point x="65" y="26" type="line"/>
      <point x="-23" y="20" type="line"/>
    </contour>
    <contour>
      <point x="46" y="0" type="line"/>
      <point x="73" y="0" type="line"/>
      <point x="409" y="660" type="line"/>
      <point x="390" y="650" type="line"/>
      <point x="475" y="0" type="line"/>
      <point x="509" y="0" type="line"/>
      <point x="416" y="677" type="line"/>
      <point x="396" y="677" type="line"/>
    </contour>
    <contour>
      <point x="181" y="247" type="line"/>
      <point x="466" y="247" type="line"/>
      <point x="461" y="267" type="line"/>
      <point x="193" y="267" type="line"/>
    </contour>
    <contour>
      <point x="356" y="0" type="line"/>
      <point x="604" y="0" type="line"/>
      <point x="608" y="20" type="line"/>
      <point x="495" y="26" type="line"/>
      <point x="481" y="26" type="line"/>
      <point x="360" y="20" type="line"/>
    </contour>
    <contour>
      <point x="378" y="740" type="curve"/>
      <point x="385" y="728" type="line"/>
      <point x="426" y="748"/>
      <point x="467" y="769"/>
      <point x="507" y="788" type="curve" smooth="yes"/>
      <point x="542" y="804"/>
      <point x="554" y="811"/>
      <point x="556" y="823" type="curve" smooth="yes"/>
      <point x="557" y="833"/>
      <point x="550" y="841"/>
      <point x="540" y="842" type="curve" smooth="yes"/>
      <point x="530" y="843"/>
      <point x="520" y="837"/>
      <point x="490" y="817" type="curve" smooth="yes"/>
      <point x="456" y="794"/>
      <point x="417" y="767"/>
    </contour>
  </outline>
</glyph>
<glyph name="Acircumflex" format="2">
  <advance width="651"/>
  <unicode hex="00C2"/>
  <anchor x="431" y="847" name="aboveUC"/>
  <anchor x="274" y="-22" name="belowLC"/>
  <anchor x="515" y="0" name="ogonek"/>
  <outline>
    <contour>
      <point x="-27" y="0" type="line"/>
      <point x="171" y="0" type="line"/>
      <point x="175" y="20" type="line"/>
      <point x="79" y="26" type="line"/>
      <point x="65" y="26" type="line"/>
      <point x="-23" y="20" type="line"/>
    </contour>
    <contour>
      <point x="46" y="0" type="line"/>
      <point x="73" y="0" type="line"/>
      <point x="409" y="660" type="line"/>
      <point x="390" y="650" type="line"/>
      <point x="475" y="0" type="line"/>
      <point x="509" y="0" type="line"/>
      <point x="416" y="677" type="line"/>
      <point x="396" y="677" type="line"/>
    </contour>
    <contour>
      <point x="181" y="247" type="line"/>
      <point x="466" y="247" type="line"/>
      <point x="461" y="267" type="line"/>
      <point x="193" y="267" type="line"/>
    </contour>
    <contour>
      <point x="356" y="0" type="line"/>
      <point x="604" y="0" type="line"/>
      <point x="608" y="20" type="line"/>
      <point x="495" y="26" type="line"/>
      <point x="481" y="26" type="line"/>
      <point x="360" y="20" type="line"/>
    </contour>
    <contour>
      <point x="431" y="837" type="line"/>
      <point x="417" y="837" type="line"/>
      <point x="277" y="725" type="line"/>
      <point x="283" y="715" type="line"/>
      <point x="430" y="806" type="line"/>
      <point x="412" y="806" type="line"/>
      <point x="541" y="715" type="line"/>
      <point x="551" y="725" type="line"/>
    </contour>
  </outline>
</glyph>
<glyph name="Atilde" format="2">
  <advance width="651"/>
  <unicode hex="00C3"/>
  <anchor x="442" y="855" name="aboveUC"/>
  <anchor x="274" y="-22" name="belowLC"/>
  <anchor x="515" y="0" name="ogonek"/>
  <outline>
    <contour>
      <point x="-27" y="0" type="line"/>
      <point x="171" y="0" type="line"/>
      <point x="175" y="20" type="line"/>
      <point x="79" y="26" type="line"/>
      <point x="65" y="26" type="line"/>
      <point x="-23" y="20" type="line"/>
    </contour>
    <contour>
      <point x="46" y="0" type="line"/>
      <point x="73" y="0" type="line"/>
      <point x="409" y="660" type="line"/>
      <point x="390" y="650" type="line"/>
      <point x="475" y="0" type="line"/>
      <point x="509" y="0" type="line"/>
      <point x="416" y="677" type="line"/>
      <point x="396" y="677" type="line"/>
    </contour>
    <contour>
      <point x="181" y="247" type="line"/>
      <point x="466" y="247" type="line"/>
      <point x="461" y="267" type="line"/>
      <point x="193" y="267" type="line"/>
    </contour>
    <contour>
      <point x="356" y="0" type="line"/>
      <point x="604" y="0" type="line"/>
      <point x="608" y="20" type="line"/>
      <point x="495" y="26" type="line"/>
      <point x="481" y="26" type="line"/>
      <point x="360" y="20" type="line"/>
    </contour>
    <contour>
      <point x="258" y="753" type="curve"/>
      <point x="273" y="748" type="line"/>
      <point x="296" y="796"/>
      <point x="322" y="822"/>
      <point x="355" y="822" type="curve" smooth="yes"/>
      <point x="384" y="822"/>
      <point x="396" y="808"/>
      <point x="418" y="783" type="curve" smooth="yes"/>
      <point x="440" y="759"/>
      <point x="457" y="741"/>
      <point x="499" y="741" type="curve" smooth="yes"/>
      <point x="546" y="741"/>
      <point x="581" y="780"/>
      <point x="600" y="832" type="curve"/>
      <point x="585" y="837" type="line"/>
      <point x="562" y="789"/>
      <point x="536" y="764"/>
      <point x="504" y="764" type="curve" smooth="yes"/>
      <point x="474" y="764"/>
      <point x="461" y="780"/>
      <point x="440" y="802" type="curve" smooth="yes"/>
      <point x="418" y="826"/>
      <point x="399" y="845"/>
      <point x="360" y="845" type="curve" smooth="yes"/>
      <point x="312" y="845"/>
      <point x="277" y="806"/>
    </contour>
  </outline>
</glyph>
<glyph name="Adieresis" format="2">
  <advance width="651"/>
  <unicode hex="00C4"/>
  <anchor x="420" y="829" name="aboveUC"/>
  <anchor x="274" y="-22" name="belowLC"/>
  <anchor x="515" y="0" name="ogonek"/>
  <outline>
    <contour>
      <point x="-27" y="0" type="line"/>
      <point x="171" y="0" type="line"/>
      <point x="175" y="20" type="line"/>
      <point x="79" y="26" type="line"/>
      <point x="65" y="26" type="line"/>
      <point x="-23" y="20" type="line"/>
    </contour>
    <contour>
      <point x="46" y="0" type="line"/>
      <point x="73" y="0" type="line"/>
      <point x="409" y="660" type="line"/>
      <point x="390" y="650" type="line"/>
      <point x="475" y="0" type="line"/>
      <point x="509" y="0" type="line"/>
      <point x="416" y="677" type="line"/>
      <point x="396" y="677" type="line"/>
    </contour>
    <contour>
      <point x="181" y="247" type="line"/>
      <point x="466" y="247" type="line"/>
      <point x="461" y="267" type="line"/>
      <point x="193" y="267" type="line"/>
    </contour>
    <contour>
      <point x="356" y="0" type="line"/>
      <point x="604" y="0" type="line"/>
      <point x="608" y="20" type="line"/>
      <point x="495" y="26" type="line"/>
      <point x="481" y="26" type="line"/>
      <point x="360" y="20" type="line"/>
    </contour>
    <contour>
      <point x="307" y="756" type="curve" smooth="yes"/>
      <point x="323" y="756"/>
      <point x="341" y="769"/>
      <point x="341" y="792" type="curve" smooth="yes"/>
      <point x="341" y="809"/>
      <point x="329" y="819"/>
      <point x="313" y="819" type="curve" smooth="yes"/>
      <point x="297" y="819"/>
      <point x="279" y="806"/>
      <point x="279" y="784" type="curve" smooth="yes"/>
      <point x="279" y="764"/>
      <point x="292" y="756"/>
    </contour>
    <contour>
      <point x="502" y="756" type="curve" smooth="yes"/>
      <point x="518" y="756"/>
      <point x="536" y="769"/>
      <point x="536" y="792" type="curve" smooth="yes"/>
      <point x="536" y="809"/>
      <point x="524" y="819"/>
      <point x="508" y="819" type="curve" smooth="yes"/>
      <point x="492" y="819"/>
      <point x="474" y="806"/>
      <point x="474" y="784" type="curve" smooth="yes"/>
      <point x="474" y="764"/>
      <point x="487" y="756"/>
    </contour>
  </outline>
</glyph>
<glyph name="Aring" format="2">
  <advance width="651"/>
  <unicode hex="00C5"/>
  <anchor x="441" y="897" name="aboveUC"/>
  <anchor x="274" y="-22" name="belowLC"/>
  <anchor x="515" y="0" name="ogonek"/>
  <outline>
    <contour>
      <point x="-27" y="0" type="line"/>
      <point x="171" y="0" type="line"/>
      <point x="175" y="20" type="line"/>
      <point x="79" y="26" type="line"/>
      <point x="65" y="26" type="line"/>
      <point x="-23" y="20" type="line"/>
    </contour>
    <contour>
      <point x="46" y="0" type="line"/>
      <point x="73" y="0" type="line"/>
      <point x="409" y="660" type="line"/>
      <point x="390" y="650" type="line"/>
      <point x="475" y="0" type="line"/>
      <point x="509" y="0" type="line"/>
      <point x="416" y="677" type="line"/>
      <point x="396" y="677" type="line"/>
    </contour>
    <contour>
      <point x="181" y="247" type="line"/>
      <point x="466" y="247" type="line"/>
      <point x="461" y="267" type="line"/>
      <point x="193" y="267" type="line"/>
    </contour>
    <contour>
      <point x="356" y="0" type="line"/>
      <point x="604" y="0" type="line"/>
      <point x="608" y="20" type="line"/>
      <point x="495" y="26" type="line"/>
      <point x="481" y="26" type="line"/>
      <point x="360" y="20" type="line"/>
    </contour>
    <contour>
      <point x="413" y="721" type="curve" smooth="yes"/>
      <point x="457" y="721"/>
      <point x="504" y="756"/>
      <point x="504" y="814" type="curve" smooth="yes"/>
      <point x="504" y="858"/>
      <point x="472" y="887"/>
      <point x="429" y="887" type="curve" smooth="yes"/>
      <point x="387" y="887"/>
      <point x="338" y="852"/>
      <point x="338" y="796" type="curve" smooth="yes"/>
      <point x="338" y="752"/>
      <point x="367" y="721"/>
    </contour>
    <contour>
      <point x="414" y="741" type="curve" smooth="yes"/>
      <point x="379" y="741"/>
      <point x="362" y="769"/>
      <point x="362" y="798" type="curve" smooth="yes"/>
      <point x="362" y="834"/>
      <point x="393" y="867"/>
      <point x="428" y="867" type="curve" smooth="yes"/>
      <point x="461" y="867"/>
      <point x="480" y="841"/>
      <point x="480" y="811" type="curve" smooth="yes"/>
      <point x="480" y="775"/>
      <point x="451" y="741"/>
    </contour>
  </outline>
</glyph>
<glyph name="Ccedilla" format="2">
  <advance width="601"/>
  <unicode hex="00C7"/>
  <anchor x="445" y="682" name="aboveUC"/>
  <anchor x="344" y="0" name="baseLC"/>
  <anchor x="339" y="-22" name="belowLC"/>
  <outline>
    <contour>
      <point x="353" y="-15" type="curve" smooth="yes"/>
      <point x="418" y="-15"/>
      <point x="470" y="-4"/>
      <point x="537" y="32" type="curve"/>
      <point x="567" y="177" type="line"/>
      <point x="543" y="177" type="line"/>
      <point x="499" y="32" type="line"/>
      <point x="520" y="53" type="line"/>
      <point x="465" y="20"/>
      <point x="414" y="7"/>
      <point x="355" y="7" type="curve" smooth="yes"/>
      <point x="205" y="7"/>
      <point x="97" y="103"/>
      <point x="97" y="280" type="curve" smooth="yes"/>
      <point x="97" y="507"/>
      <point x="238" y="670"/>
      <point x="433" y="670" type="curve" smooth="yes"/>
      <point x="511" y="670"/>
      <point x="552" y="657"/>
      <point x="602" y="619" type="curve"/>
      <point x="586" y="645" type="line"/>
      <point x="577" y="500" type="line"/>
      <point x="601" y="500" type="line"/>
      <point x="623" y="639" type="line"/>
      <point x="568" y="675"/>
      <point x="515" y="692"/>
      <point x="438" y="692" type="curve" smooth="yes"/>
      <point x="228" y="692"/>
      <point x="65" y="526"/>
      <point x="65" y="279" type="curve" smooth="yes"/>
      <point x="65" y="96"/>
      <point x="178" y="-15"/>
    </contour>
    <contour>
      <point x="302" y="-84" type="line"/>
      <point x="361" y="-101"/>
      <point x="385" y="-115"/>
      <point x="385" y="-151" type="curve" smooth="yes"/>
      <point x="385" y="-180"/>
      <point x="355" y="-200"/>
      <point x="315" y="-200" type="curve" smooth="yes"/>
      <point x="290" y="-200"/>
      <point x="267" y="-195"/>
      <point x="248" y="-187" type="curve"/>
      <point x="242" y="-201" type="line"/>
      <point x="261" y="-212"/>
      <point x="285" y="-218"/>
      <point x="315" y="-218" type="curve" smooth="yes"/>
      <point x="372" y="-218"/>
      <point x="411" y="-192"/>
      <point x="411" y="-150" type="curve" smooth="yes"/>
      <point x="411" y="-110"/>
      <point x="377" y="-89"/>
      <point x="318" y="-70" type="curve"/>
      <point x="321" y="-81" type="line"/>
      <point x="361" y="0" type="line"/>
      <point x="345" y="0" type="line"/>
    </contour>
  </outline>
</glyph>
<glyph name="Egrave" format="2">
  <advance width="570"/>
  <unicode hex="00C8"/>
  <anchor x="426" y="859" name="aboveUC"/>
  <anchor x="289" y="-22" name="belowLC"/>
  <anchor x="433" y="0" name="ogonek"/>
  <outline>
    <contour>
      <point x="11" y="0" type="line"/>
      <point x="129" y="0" type="line"/>
      <point x="134" y="27" type="line"/>
      <point x="127" y="27" type="line"/>
      <point x="15" y="20" type="line"/>
    </contour>
    <contour>
      <point x="115" y="0" type="line"/>
      <point x="149" y="0" type="line"/>
      <point x="165" y="104"/>
      <point x="184" y="209"/>
      <point x="203" y="313" type="curve" smooth="yes"/>
      <point x="271" y="677" type="line"/>
      <point x="238" y="677" type="line"/>
      <point x="221" y="573"/>
      <point x="204" y="468"/>
      <point x="184" y="364" type="curve" smooth="yes"/>
    </contour>
    <contour>
      <point x="125" y="657" type="line"/>
      <point x="245" y="650" type="line"/>
      <point x="252" y="650" type="line"/>
      <point x="257" y="677" type="line"/>
      <point x="129" y="677" type="line"/>
    </contour>
    <contour>
      <point x="129" y="0" type="line"/>
      <point x="493" y="0" type="line"/>
      <point x="532" y="153" type="line"/>
      <point x="508" y="153" type="line"/>
      <point x="460" y="0" type="line"/>
      <point x="478" y="22" type="line"/>
      <point x="133" y="22" type="line"/>
    </contour>
    <contour>
      <point x="192" y="331" type="line"/>
      <point x="413" y="331" type="line"/>
      <point x="417" y="353" type="line"/>
      <point x="196" y="353" type="line"/>
    </contour>
    <contour>
      <point x="253" y="655" type="line"/>
      <point x="564" y="655" type="line"/>
      <point x="554" y="677" type="line"/>
      <point x="544" y="524" type="line"/>
      <point x="568" y="524" type="line"/>
      <point x="587" y="677" type="line"/>
      <point x="257" y="677" type="line"/>
    </contour>
    <contour>
      <point x="395" y="234" type="line"/>
      <point x="414" y="234" type="line"/>
      <point x="455" y="450" type="line"/>
      <point x="436" y="450" type="line"/>
      <point x="408" y="352" type="line"/>
      <point x="404" y="332" type="line"/>
    </contour>
    <contour>
      <point x="424" y="741" type="line"/>
      <point x="388" y="771"/>
      <point x="352" y="802"/>
      <point x="321" y="828" type="curve" smooth="yes"/>
      <point x="293" y="852"/>
      <point x="284" y="859"/>
      <point x="274" y="859" type="curve" smooth="yes"/>
      <point x="264" y="859"/>
      <point x="256" y="852"/>
      <point x="256" y="842" type="curve" smooth="yes"/>
      <point x="256" y="830"/>
      <point x="269" y="823"/>
      <point x="302" y="801" type="curve" smooth="yes"/>
      <point x="338" y="778"/>
      <point x="377" y="753"/>
      <point x="416" y="730" type="curve"/>
    </contour>
  </outline>
</glyph>
<glyph name="Eacute" format="2">
  <advance width="570"/>
  <unicode hex="00C9"/>
  <anchor x="433" y="842" name="aboveUC"/>
  <anchor x="289" y="-22" name="belowLC"/>
  <anchor x="433" y="0" name="ogonek"/>
  <outline>
    <contour>
      <point x="11" y="0" type="line"/>
      <point x="129" y="0" type="line"/>
      <point x="134" y="27" type="line"/>
      <point x="127" y="27" type="line"/>
      <point x="15" y="20" type="line"/>
    </contour>
    <contour>
      <point x="115" y="0" type="line"/>
      <point x="149" y="0" type="line"/>
      <point x="165" y="104"/>
      <point x="184" y="209"/>
      <point x="203" y="313" type="curve" smooth="yes"/>
      <point x="271" y="677" type="line"/>
      <point x="238" y="677" type="line"/>
      <point x="221" y="573"/>
      <point x="204" y="468"/>
      <point x="184" y="364" type="curve" smooth="yes"/>
    </contour>
    <contour>
      <point x="125" y="657" type="line"/>
      <point x="245" y="650" type="line"/>
      <point x="252" y="650" type="line"/>
      <point x="257" y="677" type="line"/>
      <point x="129" y="677" type="line"/>
    </contour>
    <contour>
      <point x="129" y="0" type="line"/>
      <point x="493" y="0" type="line"/>
      <point x="532" y="153" type="line"/>
      <point x="508" y="153" type="line"/>
      <point x="460" y="0" type="line"/>
      <point x="478" y="22" type="line"/>
      <point x="133" y="22" type="line"/>
    </contour>
    <contour>
      <point x="192" y="331" type="line"/>
      <point x="413" y="331" type="line"/>
      <point x="417" y="353" type="line"/>
      <point x="196" y="353" type="line"/>
    </contour>
    <contour>
      <point x="253" y="655" type="line"/>
      <point x="564" y="655" type="line"/>
      <point x="554" y="677" type="line"/>
      <point x="544" y="524" type="line"/>
      <point x="568" y="524" type="line"/>
      <point x="587" y="677" type="line"/>
      <point x="257" y="677" type="line"/>
    </contour>
    <contour>
      <point x="395" y="234" type="line"/>
      <point x="414" y="234" type="line"/>
      <point x="455" y="450" type="line"/>
      <point x="436" y="450" type="line"/>
      <point x="408" y="352" type="line"/>
      <point x="404" y="332" type="line"/>
    </contour>
    <contour>
      <point x="353" y="740" type="curve"/>
      <point x="360" y="728" type="line"/>
      <point x="401" y="748"/>
      <point x="442" y="769"/>
      <point x="482" y="788" type="curve" smooth="yes"/>
      <point x="517" y="804"/>
      <point x="529" y="811"/>
      <point x="531" y="823" type="curve" smooth="yes"/>
      <point x="532" y="833"/>
      <point x="525" y="841"/>
      <point x="515" y="842" type="curve" smooth="yes"/>
      <point x="505" y="843"/>
      <point x="495" y="837"/>
      <point x="465" y="817" type="curve" smooth="yes"/>
      <point x="431" y="794"/>
      <point x="392" y="767"/>
    </contour>
  </outline>
</glyph>
<glyph name="Ecircumflex" format="2">
  <advance width="570"/>
  <unicode hex="00CA"/>
  <anchor x="406" y="850" name="aboveUC"/>
  <anchor x="289" y="-22" name="belowLC"/>
  <anchor x="433" y="0" name="ogonek"/>
  <outline>
    <contour>
      <point x="11" y="0" type="line"/>
      <point x="129" y="0" type="line"/>
      <point x="134" y="27" type="line"/>
      <point x="127" y="27" type="line"/>
      <point x="15" y="20" type="line"/>
    </contour>
    <contour>
      <point x="115" y="0" type="line"/>
      <point x="149" y="0" type="line"/>
      <point x="165" y="104"/>
      <point x="184" y="209"/>
      <point x="203" y="313" type="curve" smooth="yes"/>
      <point x="271" y="677" type="line"/>
      <point x="238" y="677" type="line"/>
      <point x="221" y="573"/>
      <point x="204" y="468"/>
      <point x="184" y="364" type="curve" smooth="yes"/>
    </contour>
    <contour>
      <point x="125" y="657" type="line"/>
      <point x="245" y="650" type="line"/>
      <point x="252" y="650" type="line"/>
      <point x="257" y="677" type="line"/>
      <point x="129" y="677" type="line"/>
    </contour>
    <contour>
      <point x="129" y="0" type="line"/>
      <point x="493" y="0" type="line"/>
      <point x="532" y="153" type="line"/>
      <point x="508" y="153" type="line"/>
      <point x="460" y="0" type="line"/>
      <point x="478" y="22" type="line"/>
      <point x="133" y="22" type="line"/>
    </contour>
    <contour>
      <point x="192" y="331" type="line"/>
      <point x="413" y="331" type="line"/>
      <point x="417" y="353" type="line"/>
      <point x="196" y="353" type="line"/>
    </contour>
    <contour>
      <point x="253" y="655" type="line"/>
      <point x="564" y="655" type="line"/>
      <point x="554" y="677" type="line"/>
      <point x="544" y="524" type="line"/>
      <point x="568" y="524" type="line"/>
      <point x="587" y="677" type="line"/>
      <point x="257" y="677" type="line"/>
    </contour>
    <contour>
      <point x="395" y="234" type="line"/>
      <point x="414" y="234" type="line"/>
      <point x="455" y="450" type="line"/>
      <point x="436" y="450" type="line"/>
      <point x="408" y="352" type="line"/>
      <point x="404" y="332" type="line"/>
    </contour>
    <contour>
      <point x="406" y="840" type="line"/>
      <point x="392" y="840" type="line"/>
      <point x="252" y="728" type="line"/>
      <point x="258" y="718" type="line"/>
      <point x="405" y="809" type="line"/>
      <point x="387" y="809" type="line"/>
      <point x="516" y="718" type="line"/>
      <point x="526" y="728" type="line"/>
    </contour>
  </outline>
</glyph>
<glyph name="Edieresis" format="2">
  <advance width="570"/>
  <unicode hex="00CB"/>
  <anchor x="415" y="829" name="aboveUC"/>
  <anchor x="289" y="-22" name="belowLC"/>
  <anchor x="433" y="0" name="ogonek"/>
  <outline>
    <contour>
      <point x="11" y="0" type="line"/>
      <point x="129" y="0" type="line"/>
      <point x="134" y="27" type="line"/>
      <point x="127" y="27" type="line"/>
      <point x="15" y="20" type="line"/>
    </contour>
    <contour>
      <point x="115" y="0" type="line"/>
      <point x="149" y="0" type="line"/>
      <point x="165" y="104"/>
      <point x="184" y="209"/>
      <point x="203" y="313" type="curve" smooth="yes"/>
      <point x="271" y="677" type="line"/>
      <point x="238" y="677" type="line"/>
      <point x="221" y="573"/>
      <point x="204" y="468"/>
      <point x="184" y="364" type="curve" smooth="yes"/>
    </contour>
    <contour>
      <point x="125" y="657" type="line"/>
      <point x="245" y="650" type="line"/>
      <point x="252" y="650" type="line"/>
      <point x="257" y="677" type="line"/>
      <point x="129" y="677" type="line"/>
    </contour>
    <contour>
      <point x="129" y="0" type="line"/>
      <point x="493" y="0" type="line"/>
      <point x="532" y="153" type="line"/>
      <point x="508" y="153" type="line"/>
      <point x="460" y="0" type="line"/>
      <point x="478" y="22" type="line"/>
      <point x="133" y="22" type="line"/>
    </contour>
    <contour>
      <point x="192" y="331" type="line"/>
      <point x="413" y="331" type="line"/>
      <point x="417" y="353" type="line"/>
      <point x="196" y="353" type="line"/>
    </contour>
    <contour>
      <point x="253" y="655" type="line"/>
      <point x="564" y="655" type="line"/>
      <point x="554" y="677" type="line"/>
      <point x="544" y="524" type="line"/>
      <point x="568" y="524" type="line"/>
      <point x="587" y="677" type="line"/>
      <point x="257" y="677" type="line"/>
    </contour>
    <contour>
      <point x="395" y="234" type="line"/>
      <point x="414" y="234" type="line"/>
      <point x="455" y="450" type="line"/>
      <point x="436" y="450" type="line"/>
      <point x="408" y="352" type="line"/>
      <point x="404" y="332" type="line"/>
    </contour>
    <contour>
      <point x="302" y="756" type="curve" smooth="yes"/>
      <point x="318" y="756"/>
      <point x="336" y="769"/>
      <point x="336" y="792" type="curve" smooth="yes"/>
      <point x="336" y="809"/>
      <point x="324" y="819"/>
      <point x="308" y="819" type="curve" smooth="yes"/>
      <point x="292" y="819"/>
      <point x="274" y="806"/>
      <point x="274" y="784" type="curve" smooth="yes"/>
      <point x="274" y="764"/>
      <point x="287" y="756"/>
    </contour>
    <contour>
      <point x="497" y="756" type="curve" smooth="yes"/>
      <point x="513" y="756"/>
      <point x="531" y="769"/>
      <point x="531" y="792" type="curve" smooth="yes"/>
      <point x="531" y="809"/>
      <point x="519" y="819"/>
      <point x="503" y="819" type="curve" smooth="yes"/>
      <point x="487" y="819"/>
      <point x="469" y="806"/>
      <point x="469" y="784" type="curve" smooth="yes"/>
      <point x="469" y="764"/>
      <point x="482" y="756"/>
    </contour>
  </outline>
</glyph>
<glyph name="Igrave" format="2">
  <advance width="334"/>
  <unicode hex="00CC"/>
  <anchor x="286" y="859" name="aboveUC"/>
  <anchor x="127" y="-22" name="belowLC"/>
  <anchor x="183" y="0" name="ogonek"/>
  <outline>
    <contour>
      <point x="11" y="0" type="line"/>
      <point x="259" y="0" type="line"/>
      <point x="263" y="20" type="line"/>
      <point x="142" y="27" type="line"/>
      <point x="128" y="27" type="line"/>
      <point x="15" y="20" type="line"/>
    </contour>
    <contour>
      <point x="115" y="0" type="line"/>
      <point x="149" y="0" type="line"/>
      <point x="165" y="104"/>
      <point x="184" y="209"/>
      <point x="203" y="313" type="curve" smooth="yes"/>
      <point x="271" y="677" type="line"/>
      <point x="238" y="677" type="line"/>
      <point x="221" y="573"/>
      <point x="204" y="468"/>
      <point x="184" y="364" type="curve" smooth="yes"/>
    </contour>
    <contour>
      <point x="125" y="657" type="line"/>
      <point x="246" y="650" type="line"/>
      <point x="260" y="650" type="line"/>
      <point x="373" y="657" type="line"/>
      <point x="377" y="677" type="line"/>
      <point x="129" y="677" type="line"/>
    </contour>
    <contour>
      <point x="284" y="741" type="line"/>
      <point x="248" y="771"/>
      <point x="212" y="802"/>
      <point x="181" y="828" type="curve" smooth="yes"/>
      <point x="153" y="852"/>
      <point x="144" y="859"/>
      <point x="134" y="859" type="curve" smooth="yes"/>
      <point x="124" y="859"/>
      <point x="116" y="852"/>
      <point x="116" y="842" type="curve" smooth="yes"/>
      <point x="116" y="830"/>
      <point x="129" y="823"/>
      <point x="162" y="801" type="curve" smooth="yes"/>
      <point x="198" y="778"/>
      <point x="237" y="753"/>
      <point x="276" y="730" type="curve"/>
    </contour>
  </outline>
</glyph>
<glyph name="Iacute" format="2">
  <advance width="334"/>
  <unicode hex="00CD"/>
  <anchor x="300" y="842" name="aboveUC"/>
  <anchor x="127" y="-22" name="belowLC"/>
  <anchor x="183" y="0" name="ogonek"/>
  <outline>
    <contour>
      <point x="11" y="0" type="line"/>
      <point x="259" y="0" type="line"/>
      <point x="263" y="20" type="line"/>
      <point x="142" y="27" type="line"/>
      <point x="128" y="27" type="line"/>
      <point x="15" y="20" type="line"/>
    </contour>
    <contour>
      <point x="115" y="0" type="line"/>
      <point x="149" y="0" type="line"/>
      <point x="165" y="104"/>
      <point x="184" y="209"/>
      <point x="203" y="313" type="curve" smooth="yes"/>
      <point x="271" y="677" type="line"/>
      <point x="238" y="677" type="line"/>
      <point x="221" y="573"/>
      <point x="204" y="468"/>
      <point x="184" y="364" type="curve" smooth="yes"/>
    </contour>
    <contour>
      <point x="125" y="657" type="line"/>
      <point x="246" y="650" type="line"/>
      <point x="260" y="650" type="line"/>
      <point x="373" y="657" type="line"/>
      <point x="377" y="677" type="line"/>
      <point x="129" y="677" type="line"/>
    </contour>
    <contour>
      <point x="220" y="740" type="curve"/>
      <point x="227" y="728" type="line"/>
      <point x="268" y="748"/>
      <point x="309" y="769"/>
      <point x="349" y="788" type="curve" smooth="yes"/>
      <point x="384" y="804"/>
      <point x="396" y="811"/>
      <point x="398" y="823" type="curve" smooth="yes"/>
      <point x="399" y="833"/>
      <point x="392" y="841"/>
      <point x="382" y="842" type="curve" smooth="yes"/>
      <point x="372" y="843"/>
      <point x="362" y="837"/>
      <point x="332" y="817" type="curve" smooth="yes"/>
      <point x="298" y="794"/>
      <point x="259" y="767"/>
    </contour>
  </outline>
</glyph>
<glyph name="Icircumflex" format="2">
  <advance width="334"/>
  <unicode hex="00CE"/>
  <anchor x="282" y="852" name="aboveUC"/>
  <anchor x="127" y="-22" name="belowLC"/>
  <anchor x="183" y="0" name="ogonek"/>
  <outline>
    <contour>
      <point x="11" y="0" type="line"/>
      <point x="259" y="0" type="line"/>
      <point x="263" y="20" type="line"/>
      <point x="142" y="27" type="line"/>
      <point x="128" y="27" type="line"/>
      <point x="15" y="20" type="line"/>
    </contour>
    <contour>
      <point x="115" y="0" type="line"/>
      <point x="149" y="0" type="line"/>
      <point x="165" y="104"/>
      <point x="184" y="209"/>
      <point x="203" y="313" type="curve" smooth="yes"/>
      <point x="271" y="677" type="line"/>
      <point x="238" y="677" type="line"/>
      <point x="221" y="573"/>
      <point x="204" y="468"/>
      <point x="184" y="364" type="curve" smooth="yes"/>
    </contour>
    <contour>
      <point x="125" y="657" type="line"/>
      <point x="246" y="650" type="line"/>
      <point x="260" y="650" type="line"/>
      <point x="373" y="657" type="line"/>
      <point x="377" y="677" type="line"/>
      <point x="129" y="677" type="line"/>
    </contour>
    <contour>
      <point x="282" y="842" type="line"/>
      <point x="268" y="842" type="line"/>
      <point x="128" y="730" type="line"/>
      <point x="134" y="720" type="line"/>
      <point x="281" y="811" type="line"/>
      <point x="263" y="811" type="line"/>
      <point x="392" y="720" type="line"/>
      <point x="402" y="730" type="line"/>
    </contour>
  </outline>
</glyph>
<glyph name="Idieresis" format="2">
  <advance width="334"/>
  <unicode hex="00CF"/>
  <anchor x="255" y="682" name="aboveUC"/>
  <anchor x="127" y="-22" name="belowLC"/>
  <anchor x="183" y="0" name="ogonek"/>
  <outline>
    <contour>
      <point x="183" y="756" type="curve" smooth="yes"/>
      <point x="199" y="756"/>
      <point x="217" y="769"/>
      <point x="217" y="792" type="curve" smooth="yes"/>
      <point x="217" y="809"/>
      <point x="205" y="819"/>
      <point x="189" y="819" type="curve" smooth="yes"/>
      <point x="173" y="819"/>
      <point x="155" y="806"/>
      <point x="155" y="784" type="curve" smooth="yes"/>
      <point x="155" y="764"/>
      <point x="168" y="756"/>
    </contour>
    <contour>
      <point x="348" y="756" type="curve" smooth="yes"/>
      <point x="364" y="756"/>
      <point x="382" y="769"/>
      <point x="382" y="792" type="curve" smooth="yes"/>
      <point x="382" y="809"/>
      <point x="370" y="819"/>
      <point x="354" y="819" type="curve" smooth="yes"/>
      <point x="338" y="819"/>
      <point x="320" y="806"/>
      <point x="320" y="784" type="curve" smooth="yes"/>
      <point x="320" y="764"/>
      <point x="333" y="756"/>
    </contour>
    <contour>
      <point x="11" y="0" type="line"/>
      <point x="259" y="0" type="line"/>
      <point x="263" y="20" type="line"/>
      <point x="142" y="27" type="line"/>
      <point x="128" y="27" type="line"/>
      <point x="15" y="20" type="line"/>
    </contour>
    <contour>
      <point x="115" y="0" type="line"/>
      <point x="149" y="0" type="line"/>
      <point x="165" y="104"/>
      <point x="184" y="209"/>
      <point x="203" y="313" type="curve" smooth="yes"/>
      <point x="271" y="677" type="line"/>
      <point x="238" y="677" type="line"/>
      <point x="221" y="573"/>
      <point x="204" y="468"/>
      <point x="184" y="364" type="curve" smooth="yes"/>
    </contour>
    <contour>
      <point x="125" y="657" type="line"/>
      <point x="246" y="650" type="line"/>
      <point x="260" y="650" type="line"/>
      <point x="373" y="657" type="line"/>
      <point x="377" y="677" type="line"/>
      <point x="129" y="677" type="line"/>
    </contour>
  </outline>
</glyph>
<glyph name="Ntilde" format="2">
  <advance width="726"/>
  <unicode hex="00D1"/>
  <anchor x="493" y="855" name="aboveUC"/>
  <anchor x="373" y="-12" name="belowLC"/>
  <outline>
    <contour>
      <point x="16" y="0" type="line"/>
      <point x="249" y="0" type="line"/>
      <point x="253" y="20" type="line"/>
      <point x="132" y="27" type="line"/>
      <point x="118" y="27" type="line"/>
      <point x="20" y="20" type="line"/>
    </contour>
    <contour>
      <point x="107" y="0" type="line"/>
      <point x="131" y="0" type="line"/>
      <point x="254" y="652" type="line"/>
      <point x="235" y="677" type="line"/>
    </contour>
    <contour>
      <point x="548" y="-10" type="line"/>
      <point x="568" y="-10" type="line"/>
      <point x="572" y="9" type="line"/>
      <point x="251" y="677" type="line"/>
      <point x="129" y="677" type="line"/>
      <point x="125" y="657" type="line"/>
      <point x="252" y="652" type="line"/>
      <point x="223" y="663" type="line"/>
    </contour>
    <contour>
      <point x="553" y="657" type="line"/>
      <point x="674" y="650" type="line"/>
      <point x="688" y="650" type="line"/>
      <point x="781" y="657" type="line"/>
      <point x="785" y="677" type="line"/>
      <point x="557" y="677" type="line"/>
    </contour>
    <contour>
      <point x="568" y="-10" type="line"/>
      <point x="698" y="677" type="line"/>
      <point x="674" y="677" type="line"/>
      <point x="549" y="14" type="line"/>
    </contour>
    <contour>
      <point x="309" y="753" type="curve"/>
      <point x="324" y="748" type="line"/>
      <point x="347" y="796"/>
      <point x="373" y="822"/>
      <point x="406" y="822" type="curve" smooth="yes"/>
      <point x="435" y="822"/>
      <point x="447" y="808"/>
      <point x="469" y="783" type="curve" smooth="yes"/>
      <point x="491" y="759"/>
      <point x="508" y="741"/>
      <point x="550" y="741" type="curve" smooth="yes"/>
      <point x="597" y="741"/>
      <point x="632" y="780"/>
      <point x="651" y="832" type="curve"/>
      <point x="636" y="837" type="line"/>
      <point x="613" y="789"/>
      <point x="587" y="764"/>
      <point x="555" y="764" type="curve" smooth="yes"/>
      <point x="525" y="764"/>
      <point x="512" y="780"/>
      <point x="491" y="802" type="curve" smooth="yes"/>
      <point x="469" y="826"/>
      <point x="450" y="845"/>
      <point x="411" y="845" type="curve" smooth="yes"/>
      <point x="363" y="845"/>
      <point x="328" y="806"/>
    </contour>
  </outline>
</glyph>
<glyph name="Ograve" format="2">
  <advance width="654"/>
  <unicode hex="00D2"/>
  <anchor x="453" y="859" name="aboveUC"/>
  <anchor x="310" y="-22" name="belowLC"/>
  <anchor x="613" y="680" name="hornLC"/>
  <anchor x="396" y="0" name="ogonek"/>
  <outline>
    <contour>
      <point x="303" y="-15" type="curve" smooth="yes"/>
      <point x="494" y="-15"/>
      <point x="644" y="169"/>
      <point x="644" y="418" type="curve" smooth="yes"/>
      <point x="644" y="573"/>
      <point x="569" y="692"/>
      <point x="405" y="692" type="curve" smooth="yes"/>
      <point x="219" y="692"/>
      <point x="64" y="502"/>
      <point x="64" y="259" type="curve" smooth="yes"/>
      <point x="64" y="104"/>
      <point x="146" y="-15"/>
    </contour>
    <contour>
      <point x="307" y="7" type="curve" smooth="yes"/>
      <point x="162" y="7"/>
      <point x="96" y="121"/>
      <point x="96" y="271" type="curve" smooth="yes"/>
      <point x="96" y="477"/>
      <point x="228" y="670"/>
      <point x="401" y="670" type="curve" smooth="yes"/>
      <point x="548" y="670"/>
      <point x="611" y="562"/>
      <point x="611" y="405" type="curve" smooth="yes"/>
      <point x="611" y="183"/>
      <point x="476" y="7"/>
    </contour>
    <contour>
      <point x="451" y="741" type="line"/>
      <point x="415" y="771"/>
      <point x="379" y="802"/>
      <point x="348" y="828" type="curve" smooth="yes"/>
      <point x="320" y="852"/>
      <point x="311" y="859"/>
      <point x="301" y="859" type="curve" smooth="yes"/>
      <point x="291" y="859"/>
      <point x="283" y="852"/>
      <point x="283" y="842" type="curve" smooth="yes"/>
      <point x="283" y="830"/>
      <point x="296" y="823"/>
      <point x="329" y="801" type="curve" smooth="yes"/>
      <point x="365" y="778"/>
      <point x="404" y="753"/>
      <point x="443" y="730" type="curve"/>
    </contour>
  </outline>
</glyph>
<glyph name="Oacute" format="2">
  <advance width="654"/>
  <unicode hex="00D3"/>
  <anchor x="480" y="842" name="aboveUC"/>
  <anchor x="310" y="-22" name="belowLC"/>
  <anchor x="613" y="680" name="hornLC"/>
  <anchor x="396" y="0" name="ogonek"/>
  <outline>
    <contour>
      <point x="303" y="-15" type="curve" smooth="yes"/>
      <point x="494" y="-15"/>
      <point x="644" y="169"/>
      <point x="644" y="418" type="curve" smooth="yes"/>
      <point x="644" y="573"/>
      <point x="569" y="692"/>
      <point x="405" y="692" type="curve" smooth="yes"/>
      <point x="219" y="692"/>
      <point x="64" y="502"/>
      <point x="64" y="259" type="curve" smooth="yes"/>
      <point x="64" y="104"/>
      <point x="146" y="-15"/>
    </contour>
    <contour>
      <point x="307" y="7" type="curve" smooth="yes"/>
      <point x="162" y="7"/>
      <point x="96" y="121"/>
      <point x="96" y="271" type="curve" smooth="yes"/>
      <point x="96" y="477"/>
      <point x="228" y="670"/>
      <point x="401" y="670" type="curve" smooth="yes"/>
      <point x="548" y="670"/>
      <point x="611" y="562"/>
      <point x="611" y="405" type="curve" smooth="yes"/>
      <point x="611" y="183"/>
      <point x="476" y="7"/>
    </contour>
    <contour>
      <point x="400" y="740" type="curve"/>
      <point x="407" y="728" type="line"/>
      <point x="448" y="748"/>
      <point x="489" y="769"/>
      <point x="529" y="788" type="curve" smooth="yes"/>
      <point x="564" y="804"/>
      <point x="576" y="811"/>
      <point x="578" y="823" type="curve" smooth="yes"/>
      <point x="579" y="833"/>
      <point x="572" y="841"/>
      <point x="562" y="842" type="curve" smooth="yes"/>
      <point x="552" y="843"/>
      <point x="542" y="837"/>
      <point x="512" y="817" type="curve" smooth="yes"/>
      <point x="478" y="794"/>
      <point x="439" y="767"/>
    </contour>
  </outline>
</glyph>
<glyph name="Otilde" format="2">
  <advance width="654"/>
  <unicode hex="00D5"/>
  <anchor x="454" y="855" name="aboveUC"/>
  <anchor x="310" y="-22" name="belowLC"/>
  <anchor x="613" y="680" name="hornLC"/>
  <anchor x="396" y="0" name="ogonek"/>
  <outline>
    <contour>
      <point x="303" y="-15" type="curve" smooth="yes"/>
      <point x="494" y="-15"/>
      <point x="644" y="169"/>
      <point x="644" y="418" type="curve" smooth="yes"/>
      <point x="644" y="573"/>
      <point x="569" y="692"/>
      <point x="405" y="692" type="curve" smooth="yes"/>
      <point x="219" y="692"/>
      <point x="64" y="502"/>
      <point x="64" y="259" type="curve" smooth="yes"/>
      <point x="64" y="104"/>
      <point x="146" y="-15"/>
    </contour>
    <contour>
      <point x="307" y="7" type="curve" smooth="yes"/>
      <point x="162" y="7"/>
      <point x="96" y="121"/>
      <point x="96" y="271" type="curve" smooth="yes"/>
      <point x="96" y="477"/>
      <point x="228" y="670"/>
      <point x="401" y="670" type="curve" smooth="yes"/>
      <point x="548" y="670"/>
      <point x="611" y="562"/>
      <point x="611" y="405" type="curve" smooth="yes"/>
      <point x="611" y="183"/>
      <point x="476" y="7"/>
    </contour>
    <contour>
      <point x="270" y="753" type="curve"/>
      <point x="285" y="748" type="line"/>
      <point x="308" y="796"/>
      <point x="334" y="822"/>
      <point x="367" y="822" type="curve" smooth="yes"/>
      <point x="396" y="822"/>
      <point x="408" y="808"/>
      <point x="430" y="783" type="curve" smooth="yes"/>
      <point x="452" y="759"/>
      <point x="469" y="741"/>
      <point x="511" y="741" type="curve" smooth="yes"/>
      <point x="558" y="741"/>
      <point x="593" y="780"/>
      <point x="612" y="832" type="curve"/>
      <point x="597" y="837" type="line"/>
      <point x="574" y="789"/>
      <point x="548" y="764"/>
      <point x="516" y="764" type="curve" smooth="yes"/>
      <point x="486" y="764"/>
      <point x="473" y="780"/>
      <point x="452" y="802" type="curve" smooth="yes"/>
      <point x="430" y="826"/>
      <point x="411" y="845"/>
      <point x="372" y="845" type="curve" smooth="yes"/>
      <point x="324" y="845"/>
      <point x="289" y="806"/>
    </contour>
  </outline>
</glyph>
<glyph name="Udieresis" format="2">
  <advance width="725"/>
  <unicode hex="00DC"/>
  <anchor x="486" y="829" name="aboveUC"/>
  <anchor x="327" y="-22" name="belowLC"/>
  <anchor x="689" y="720" name="hornLC"/>
  <anchor x="431" y="0" name="ogonek"/>
  <outline>
    <contour>
      <point x="142" y="160" type="curve" smooth="yes"/>
      <point x="142" y="43"/>
      <point x="222" y="-15"/>
      <point x="338" y="-15" type="curve" smooth="yes"/>
      <point x="495" y="-15"/>
      <point x="567" y="63"/>
      <point x="601" y="246" type="curve" smooth="yes"/>
      <point x="682" y="677" type="line"/>
      <point x="659" y="677" type="line"/>
      <point x="582" y="272" type="line" smooth="yes"/>
      <point x="543" y="68"/>
      <point x="478" y="11"/>
      <point x="343" y="11" type="curve" smooth="yes"/>
      <point x="241" y="11"/>
      <point x="171" y="60"/>
      <point x="172" y="165" type="curve" smooth="yes"/>
      <point x="172" y="191"/>
      <point x="175" y="220"/>
      <point x="181" y="254" type="curve" smooth="yes"/>
      <point x="261" y="677" type="line"/>
      <point x="229" y="677" type="line"/>
      <point x="211" y="573"/>
      <point x="192" y="467"/>
      <point x="172" y="361" type="curve" smooth="yes"/>
      <point x="151" y="247" type="line" smooth="yes"/>
      <point x="145" y="215"/>
      <point x="142" y="185"/>
    </contour>
    <contour>
      <point x="125" y="657" type="line"/>
      <point x="236" y="650" type="line"/>
      <point x="250" y="650" type="line"/>
      <point x="363" y="657" type="line"/>
      <point x="367" y="677" type="line"/>
      <point x="129" y="677" type="line"/>
    </contour>
    <contour>
      <point x="538" y="657" type="line"/>
      <point x="659" y="650" type="line"/>
      <point x="673" y="650" type="line"/>
      <point x="774" y="657" type="line"/>
      <point x="778" y="677" type="line"/>
      <point x="542" y="677" type="line"/>
    </contour>
    <contour>
      <point x="373" y="756" type="curve" smooth="yes"/>
      <point x="389" y="756"/>
      <point x="407" y="769"/>
      <point x="407" y="792" type="curve" smooth="yes"/>
      <point x="407" y="809"/>
      <point x="395" y="819"/>
      <point x="379" y="819" type="curve" smooth="yes"/>
      <point x="363" y="819"/>
      <point x="345" y="806"/>
      <point x="345" y="784" type="curve" smooth="yes"/>
      <point x="345" y="764"/>
      <point x="358" y="756"/>
    </contour>
    <contour>
      <point x="568" y="756" type="curve" smooth="yes"/>
      <point x="584" y="756"/>
      <point x="602" y="769"/>
      <point x="602" y="792" type="curve" smooth="yes"/>
      <point x="602" y="809"/>
      <point x="590" y="819"/>
      <point x="574" y="819" type="curve" smooth="yes"/>
      <point x="558" y="819"/>
      <point x="540" y="806"/>
      <point x="540" y="784" type="curve" smooth="yes"/>
      <point x="540" y="764"/>
      <point x="553" y="756"/>
    </contour>
  </outline>
</glyph>
<glyph name="Yacute" format="2">
  <advance width="558"/>
  <unicode hex="00DD"/>
  <anchor x="428" y="837" name="aboveUC"/>
  <anchor x="247" y="-22" name="belowLC"/>
  <outline>
    <contour>
      <point x="67" y="657" type="line"/>
      <point x="158" y="650" type="line"/>
      <point x="172" y="650" type="line"/>
      <point x="290" y="657" type="line"/>
      <point x="294" y="677" type="line"/>
      <point x="71" y="677" type="line"/>
    </contour>
    <contour>
      <point x="116" y="0" type="line"/>
      <point x="384" y="0" type="line"/>
      <point x="388" y="20" type="line"/>
      <point x="262" y="27" type="line"/>
      <point x="248" y="27" type="line"/>
      <point x="120" y="20" type="line"/>
    </contour>
    <contour>
      <point x="293" y="250" type="line"/>
      <point x="303" y="253" type="line"/>
      <point x="596" y="677" type="line"/>
      <point x="570" y="677" type="line"/>
      <point x="298" y="279" type="line"/>
      <point x="313" y="283" type="line"/>
      <point x="171" y="677" type="line"/>
      <point x="139" y="677" type="line"/>
    </contour>
    <contour>
      <point x="235" y="0" type="line"/>
      <point x="265" y="0" type="line"/>
      <point x="283" y="96"/>
      <point x="301" y="193"/>
      <point x="319" y="289" type="curve"/>
      <point x="289" y="289" type="line"/>
    </contour>
    <contour>
      <point x="442" y="657" type="line"/>
      <point x="557" y="650" type="line"/>
      <point x="571" y="650" type="line"/>
      <point x="665" y="657" type="line"/>
      <point x="669" y="677" type="line"/>
      <point x="446" y="677" type="line"/>
    </contour>
    <contour>
      <point x="348" y="735" type="curve"/>
      <point x="355" y="723" type="line"/>
      <point x="396" y="743"/>
      <point x="437" y="764"/>
      <point x="477" y="783" type="curve" smooth="yes"/>
      <point x="512" y="799"/>
      <point x="524" y="806"/>
      <point x="526" y="818" type="curve" smooth="yes"/>
      <point x="527" y="828"/>
      <point x="520" y="836"/>
      <point x="510" y="837" type="curve" smooth="yes"/>
      <point x="500" y="838"/>
      <point x="490" y="832"/>
      <point x="460" y="812" type="curve" smooth="yes"/>
      <point x="426" y="789"/>
      <point x="387" y="762"/>
    </contour>
  </outline>
</glyph>
<glyph name="aring" format="2">
  <advance width="515"/>
  <unicode hex="00E5"/>
  <anchor x="401" y="749" name="aboveLC"/>
  <anchor x="242" y="-22" name="belowLC"/>
  <anchor x="411" y="0" name="ogonek"/>
  <outline>
    <contour>
      <point x="159" y="-13" type="curve" smooth="yes"/>
      <point x="242" y="-13"/>
      <point x="310" y="75"/>
      <point x="379" y="173" type="curve"/>
      <point x="375" y="181" type="line"/>
      <point x="295" y="83"/>
      <point x="237" y="12"/>
      <point x="166" y="12" type="curve" smooth="yes"/>
      <point x="120" y="12"/>
      <point x="87" y="42"/>
      <point x="87" y="123" type="curve" smooth="yes"/>
      <point x="87" y="213"/>
      <point x="131" y="319"/>
      <point x="199" y="387" type="curve" smooth="yes"/>
      <point x="242" y="431"/>
      <point x="296" y="460"/>
      <point x="353" y="460" type="curve" smooth="yes"/>
      <point x="381" y="460"/>
      <point x="405" y="451"/>
      <point x="425" y="420" type="curve"/>
      <point x="432" y="440" type="line"/>
      <point x="416" y="471"/>
      <point x="391" y="483"/>
      <point x="358" y="483" type="curve" smooth="yes"/>
      <point x="210" y="483"/>
      <point x="59" y="282"/>
      <point x="59" y="116" type="curve" smooth="yes"/>
      <point x="59" y="18"/>
      <point x="107" y="-13"/>
    </contour>
    <contour>
      <point x="373" y="-13" type="curve" smooth="yes"/>
      <point x="427" y="-13"/>
      <point x="472" y="30"/>
      <point x="512" y="92" type="curve"/>
      <point x="501" y="101" type="line"/>
      <point x="463" y="49"/>
      <point x="421" y="13"/>
      <point x="385" y="13" type="curve" smooth="yes"/>
      <point x="368" y="13"/>
      <point x="355" y="18"/>
      <point x="355" y="35" type="curve" smooth="yes"/>
      <point x="355" y="56"/>
      <point x="362" y="80"/>
      <point x="366" y="99" type="curve" smooth="yes"/>
      <point x="446" y="477" type="line"/>
      <point x="438" y="483" type="line"/>
      <point x="413" y="445" type="line"/>
      <point x="340" y="99" type="line" smooth="yes"/>
      <point x="333" y="68"/>
      <point x="329" y="54"/>
      <point x="329" y="32" type="curve" smooth="yes"/>
      <point x="329" y="4"/>
      <point x="348" y="-13"/>
    </contour>
    <contour>
      <point x="371" y="565" type="curve" smooth="yes"/>
      <point x="416" y="565"/>
      <point x="467" y="601"/>
      <point x="467" y="662" type="curve" smooth="yes"/>
      <point x="467" y="707"/>
      <point x="432" y="739"/>
      <point x="389" y="739" type="curve" smooth="yes"/>
      <point x="342" y="739"/>
      <point x="293" y="704"/>
      <point x="293" y="642" type="curve" smooth="yes"/>
      <point x="293" y="599"/>
      <point x="325" y="565"/>
    </contour>
    <contour>
      <point x="372" y="585" type="curve" smooth="yes"/>
      <point x="337" y="585"/>
      <point x="317" y="614"/>
      <point x="317" y="644" type="curve" smooth="yes"/>
      <point x="317" y="686"/>
      <point x="347" y="719"/>
      <point x="387" y="719" type="curve" smooth="yes"/>
      <point x="422" y="719"/>
      <point x="443" y="691"/>
      <point x="443" y="660" type="curve" smooth="yes"/>
      <point x="443" y="617"/>
      <point x="413" y="585"/>
    </contour>
  </outline>
</glyph>
<glyph name="ae" format="2">
  <advance width="680"/>
  <unicode hex="00E6"/>
  <anchor x="485" y="500" name="aboveLC"/>
  <anchor x="352" y="-22" name="belowLC"/>
  <anchor x="540" y="0" name="ogonek"/>
  <outline>
    <contour>
      <point x="159" y="-13" type="curve" smooth="yes"/>
      <point x="231" y="-13"/>
      <point x="296" y="41"/>
      <point x="353" y="115" type="curve"/>
      <point x="348" y="129" type="line"/>
      <point x="287" y="56"/>
      <point x="230" y="12"/>
      <point x="166" y="12" type="curve" smooth="yes"/>
      <point x="120" y="12"/>
      <point x="87" y="42"/>
      <point x="87" y="123" type="curve" smooth="yes"/>
      <point x="87" y="213"/>
      <point x="131" y="319"/>
      <point x="199" y="387" type="curve" smooth="yes"/>
      <point x="242" y="431"/>
      <point x="296" y="460"/>
      <point x="353" y="460" type="curve" smooth="yes"/>
      <point x="396" y="460"/>
      <point x="434" y="447"/>
      <point x="465" y="414" type="curve"/>
      <point x="476" y="434" type="line"/>
      <point x="451" y="467"/>
      <point x="410" y="483"/>
      <point x="358" y="483" type="curve" smooth="yes"/>
      <point x="210" y="483"/>
      <point x="59" y="282"/>
      <point x="59" y="116" type="curve" smooth="yes"/>
      <point x="59" y="18"/>
      <point x="107" y="-13"/>
    </contour>
    <contour>
      <point x="483" y="-13" type="curve" smooth="yes"/>
      <point x="554" y="-13"/>
      <point x="607" y="26"/>
      <point x="650" y="92" type="curve"/>
      <point x="639" y="100" type="line"/>
      <point x="597" y="43"/>
      <point x="551" y="12"/>
      <point x="493" y="12" type="curve" smooth="yes"/>
      <point x="416" y="12"/>
      <point x="368" y="64"/>
      <point x="368" y="171" type="curve" smooth="yes"/>
      <point x="368" y="309"/>
      <point x="480" y="464"/>
      <point x="592" y="464" type="curve" smooth="yes"/>
      <point x="634" y="464"/>
      <point x="662" y="445"/>
      <point x="662" y="406" type="curve" smooth="yes"/>
      <point x="662" y="316"/>
      <point x="548" y="235"/>
      <point x="353" y="183" type="curve"/>
      <point x="355" y="167" type="line"/>
      <point x="561" y="219"/>
      <point x="686" y="309"/>
      <point x="686" y="408" type="curve" smooth="yes"/>
      <point x="686" y="460"/>
      <point x="646" y="483"/>
      <point x="598" y="483" type="curve" smooth="yes"/>
      <point x="463" y="483"/>
      <point x="342" y="318"/>
      <point x="342" y="162" type="curve" smooth="yes"/>
      <point x="342" y="34"/>
      <point x="411" y="-13"/>
    </contour>
  </outline>
</glyph>
<glyph name="ccedilla" format="2">
  <advance width="408"/>
  <unicode hex="00E7"/>
  <anchor x="330" y="500" name="aboveLC"/>
  <anchor x="197" y="0" name="baseLC"/>
  <anchor x="196" y="-22" name="belowLC"/>
  <outline>
    <contour>
      <point x="212" y="-13" type="curve" smooth="yes"/>
      <point x="282" y="-13"/>
      <point x="335" y="26"/>
      <point x="378" y="92" type="curve"/>
      <point x="367" y="100" type="line"/>
      <point x="326" y="44"/>
      <point x="279" y="12"/>
      <point x="221" y="12" type="curve" smooth="yes"/>
      <point x="144" y="12"/>
      <point x="96" y="64"/>
      <point x="96" y="169" type="curve" smooth="yes"/>
      <point x="96" y="307"/>
      <point x="201" y="470"/>
      <point x="340" y="467" type="curve"/>
      <point x="324" y="470" type="line"/>
      <point x="371" y="425" type="line" smooth="yes"/>
      <point x="386" y="411"/>
      <point x="391" y="408"/>
      <point x="400" y="408" type="curve" smooth="yes"/>
      <point x="408" y="408"/>
      <point x="418" y="416"/>
      <point x="417" y="425" type="curve"/>
      <point x="409" y="450"/>
      <point x="370" y="483"/>
      <point x="324" y="483" type="curve" smooth="yes"/>
      <point x="196" y="483"/>
      <point x="69" y="327"/>
      <point x="69" y="159" type="curve" smooth="yes"/>
      <point x="69" y="38"/>
      <point x="138" y="-13"/>
    </contour>
    <contour>
      <point x="171" y="-84" type="line"/>
      <point x="230" y="-101"/>
      <point x="254" y="-115"/>
      <point x="254" y="-151" type="curve" smooth="yes"/>
      <point x="254" y="-180"/>
      <point x="224" y="-200"/>
      <point x="184" y="-200" type="curve" smooth="yes"/>
      <point x="159" y="-200"/>
      <point x="136" y="-195"/>
      <point x="117" y="-187" type="curve"/>
      <point x="111" y="-201" type="line"/>
      <point x="130" y="-212"/>
      <point x="154" y="-218"/>
      <point x="184" y="-218" type="curve" smooth="yes"/>
      <point x="241" y="-218"/>
      <point x="280" y="-192"/>
      <point x="280" y="-150" type="curve" smooth="yes"/>
      <point x="280" y="-110"/>
      <point x="246" y="-89"/>
      <point x="187" y="-70" type="curve"/>
      <point x="190" y="-81" type="line"/>
      <point x="230" y="0" type="line"/>
      <point x="214" y="0" type="line"/>
    </contour>
  </outline>
</glyph>
<glyph name="egrave" format="2">
  <advance width="408"/>
  <unicode hex="00E8"/>
  <anchor x="371" y="727" name="aboveLC"/>
  <anchor x="217" y="-22" name="belowLC"/>
  <anchor x="268" y="0" name="ogonek"/>
  <outline>
    <contour>
      <point x="211" y="-13" type="curve" smooth="yes"/>
      <point x="282" y="-13"/>
      <point x="335" y="26"/>
      <point x="378" y="92" type="curve"/>
      <point x="367" y="100" type="line"/>
      <point x="325" y="43"/>
      <point x="279" y="12"/>
      <point x="221" y="12" type="curve" smooth="yes"/>
      <point x="144" y="12"/>
      <point x="96" y="64"/>
      <point x="96" y="171" type="curve" smooth="yes"/>
      <point x="96" y="309"/>
      <point x="208" y="464"/>
      <point x="320" y="464" type="curve" smooth="yes"/>
      <point x="362" y="464"/>
      <point x="390" y="445"/>
      <point x="390" y="406" type="curve" smooth="yes"/>
      <point x="390" y="316"/>
      <point x="276" y="235"/>
      <point x="81" y="183" type="curve"/>
      <point x="83" y="167" type="line"/>
      <point x="289" y="219"/>
      <point x="414" y="309"/>
      <point x="414" y="408" type="curve" smooth="yes"/>
      <point x="414" y="460"/>
      <point x="374" y="483"/>
      <point x="326" y="483" type="curve" smooth="yes"/>
      <point x="191" y="483"/>
      <point x="70" y="318"/>
      <point x="70" y="162" type="curve" smooth="yes"/>
      <point x="70" y="34"/>
      <point x="139" y="-13"/>
    </contour>
    <contour>
      <point x="346" y="550" type="line"/>
      <point x="318" y="601"/>
      <point x="277" y="673"/>
      <point x="255" y="711" type="curve" smooth="yes"/>
      <point x="241" y="736"/>
      <point x="234" y="747"/>
      <point x="224" y="747" type="curve" smooth="yes"/>
      <point x="215" y="748"/>
      <point x="206" y="744"/>
      <point x="206" y="733" type="curve" smooth="yes"/>
      <point x="205" y="723"/>
      <point x="214" y="712"/>
      <point x="230" y="689" type="curve" smooth="yes"/>
      <point x="253" y="655"/>
      <point x="300" y="588"/>
      <point x="333" y="543" type="curve"/>
    </contour>
  </outline>
</glyph>
<glyph name="eacute" format="2">
  <advance width="408"/>
  <unicode hex="00E9"/>
  <anchor x="361" y="747" name="aboveLC"/>
  <anchor x="217" y="-22" name="belowLC"/>
  <anchor x="268" y="0" name="ogonek"/>
  <outline>
    <contour>
      <point x="211" y="-13" type="curve" smooth="yes"/>
      <point x="282" y="-13"/>
      <point x="335" y="26"/>
      <point x="378" y="92" type="curve"/>
      <point x="367" y="100" type="line"/>
      <point x="325" y="43"/>
      <point x="279" y="12"/>
      <point x="221" y="12" type="curve" smooth="yes"/>
      <point x="144" y="12"/>
      <point x="96" y="64"/>
      <point x="96" y="171" type="curve" smooth="yes"/>
      <point x="96" y="309"/>
      <point x="208" y="464"/>
      <point x="320" y="464" type="curve" smooth="yes"/>
      <point x="362" y="464"/>
      <point x="390" y="445"/>
      <point x="390" y="406" type="curve" smooth="yes"/>
      <point x="390" y="316"/>
      <point x="276" y="235"/>
      <point x="81" y="183" type="curve"/>
      <point x="83" y="167" type="line"/>
      <point x="289" y="219"/>
      <point x="414" y="309"/>
      <point x="414" y="408" type="curve" smooth="yes"/>
      <point x="414" y="460"/>
      <point x="374" y="483"/>
      <point x="326" y="483" type="curve" smooth="yes"/>
      <point x="191" y="483"/>
      <point x="70" y="318"/>
      <point x="70" y="162" type="curve" smooth="yes"/>
      <point x="70" y="34"/>
      <point x="139" y="-13"/>
    </contour>
    <contour>
      <point x="312" y="550" type="curve"/>
      <point x="325" y="543" type="line"/>
      <point x="358" y="588"/>
      <point x="405" y="655"/>
      <point x="428" y="689" type="curve" smooth="yes"/>
      <point x="444" y="712"/>
      <point x="453" y="723"/>
      <point x="452" y="733" type="curve" smooth="yes"/>
      <point x="452" y="744"/>
      <point x="443" y="748"/>
      <point x="434" y="747" type="curve" smooth="yes"/>
      <point x="424" y="747"/>
      <point x="417" y="736"/>
      <point x="403" y="711" type="curve" smooth="yes"/>
      <point x="381" y="673"/>
      <point x="340" y="601"/>
    </contour>
  </outline>
</glyph>
<glyph name="edieresis" format="2">
  <advance width="408"/>
  <unicode hex="00EB"/>
  <anchor x="362" y="701" name="aboveLC"/>
  <anchor x="217" y="-22" name="belowLC"/>
  <anchor x="268" y="0" name="ogonek"/>
  <outline>
    <contour>
      <point x="211" y="-13" type="curve" smooth="yes"/>
      <point x="282" y="-13"/>
      <point x="335" y="26"/>
      <point x="378" y="92" type="curve"/>
      <point x="367" y="100" type="line"/>
      <point x="325" y="43"/>
      <point x="279" y="12"/>
      <point x="221" y="12" type="curve" smooth="yes"/>
      <point x="144" y="12"/>
      <point x="96" y="64"/>
      <point x="96" y="171" type="curve" smooth="yes"/>
      <point x="96" y="309"/>
      <point x="208" y="464"/>
      <point x="320" y="464" type="curve" smooth="yes"/>
      <point x="362" y="464"/>
      <point x="390" y="445"/>
      <point x="390" y="406" type="curve" smooth="yes"/>
      <point x="390" y="316"/>
      <point x="276" y="235"/>
      <point x="81" y="183" type="curve"/>
      <point x="83" y="167" type="line"/>
      <point x="289" y="219"/>
      <point x="414" y="309"/>
      <point x="414" y="408" type="curve" smooth="yes"/>
      <point x="414" y="460"/>
      <point x="374" y="483"/>
      <point x="326" y="483" type="curve" smooth="yes"/>
      <point x="191" y="483"/>
      <point x="70" y="318"/>
      <point x="70" y="162" type="curve" smooth="yes"/>
      <point x="70" y="34"/>
      <point x="139" y="-13"/>
    </contour>
    <contour>
      <point x="263" y="664" type="curve" smooth="yes"/>
      <point x="278" y="664"/>
      <point x="295" y="677"/>
      <point x="295" y="698" type="curve" smooth="yes"/>
      <point x="295" y="714"/>
      <point x="283" y="723"/>
      <point x="269" y="723" type="curve" smooth="yes"/>
      <point x="254" y="723"/>
      <point x="237" y="710"/>
      <point x="237" y="690" type="curve" smooth="yes"/>
      <point x="237" y="673"/>
      <point x="249" y="664"/>
    </contour>
    <contour>
      <point x="440" y="664" type="curve" smooth="yes"/>
      <point x="455" y="664"/>
      <point x="472" y="677"/>
      <point x="472" y="698" type="curve" smooth="yes"/>
      <point x="472" y="714"/>
      <point x="460" y="723"/>
      <point x="446" y="723" type="curve" smooth="yes"/>
      <point x="431" y="723"/>
      <point x="414" y="710"/>
      <point x="414" y="690" type="curve" smooth="yes"/>
      <point x="414" y="673"/>
      <point x="426" y="664"/>
    </contour>
  </outline>
</glyph>
<glyph name="igrave" format="2">
  <advance width="286"/>
  <unicode hex="00EC"/>
  <anchor x="237" y="727" name="aboveLC"/>
  <anchor x="149" y="-22" name="belowLC"/>
  <anchor x="181" y="0" name="ogonek"/>
  <outline>
    <contour>
      <point x="98" y="28" type="curve" smooth="yes"/>
      <point x="98" y="4"/>
      <point x="116" y="-13"/>
      <point x="140" y="-13" type="curve" smooth="yes"/>
      <point x="195" y="-13"/>
      <point x="239" y="32"/>
      <point x="281" y="92" type="curve"/>
      <point x="271" y="100" type="line"/>
      <point x="229" y="47"/>
      <point x="188" y="13"/>
      <point x="154" y="13" type="curve" smooth="yes"/>
      <point x="135" y="13"/>
      <point x="125" y="20"/>
      <point x="125" y="38" type="curve" smooth="yes"/>
      <point x="125" y="56"/>
      <point x="132" y="80"/>
      <point x="136" y="99" type="curve" smooth="yes"/>
      <point x="218" y="473" type="line"/>
      <point x="205" y="483" type="line"/>
      <point x="65" y="468" type="line"/>
      <point x="62" y="454" type="line"/>
      <point x="191" y="452" type="line"/>
      <point x="187" y="459" type="line"/>
      <point x="110" y="99" type="line" smooth="yes"/>
      <point x="103" y="68"/>
      <point x="98" y="54"/>
    </contour>
    <contour>
      <point x="212" y="550" type="line"/>
      <point x="184" y="601"/>
      <point x="143" y="673"/>
      <point x="121" y="711" type="curve" smooth="yes"/>
      <point x="107" y="736"/>
      <point x="100" y="747"/>
      <point x="90" y="747" type="curve" smooth="yes"/>
      <point x="81" y="748"/>
      <point x="72" y="744"/>
      <point x="72" y="733" type="curve" smooth="yes"/>
      <point x="71" y="723"/>
      <point x="80" y="712"/>
      <point x="96" y="689" type="curve" smooth="yes"/>
      <point x="119" y="655"/>
      <point x="166" y="588"/>
      <point x="199" y="543" type="curve"/>
    </contour>
  </outline>
</glyph>
<glyph name="iacute" format="2">
  <advance width="286"/>
  <unicode hex="00ED"/>
  <anchor x="258" y="747" name="aboveLC"/>
  <anchor x="149" y="-22" name="belowLC"/>
  <anchor x="181" y="0" name="ogonek"/>
  <outline>
    <contour>
      <point x="98" y="28" type="curve" smooth="yes"/>
      <point x="98" y="4"/>
      <point x="116" y="-13"/>
      <point x="140" y="-13" type="curve" smooth="yes"/>
      <point x="195" y="-13"/>
      <point x="239" y="32"/>
      <point x="281" y="92" type="curve"/>
      <point x="271" y="100" type="line"/>
      <point x="229" y="47"/>
      <point x="188" y="13"/>
      <point x="154" y="13" type="curve" smooth="yes"/>
      <point x="135" y="13"/>
      <point x="125" y="20"/>
      <point x="125" y="38" type="curve" smooth="yes"/>
      <point x="125" y="56"/>
      <point x="132" y="80"/>
      <point x="136" y="99" type="curve" smooth="yes"/>
      <point x="218" y="473" type="line"/>
      <point x="205" y="483" type="line"/>
      <point x="65" y="468" type="line"/>
      <point x="62" y="454" type="line"/>
      <point x="191" y="452" type="line"/>
      <point x="187" y="459" type="line"/>
      <point x="110" y="99" type="line" smooth="yes"/>
      <point x="103" y="68"/>
      <point x="98" y="54"/>
    </contour>
    <contour>
      <point x="209" y="550" type="curve"/>
      <point x="222" y="543" type="line"/>
      <point x="255" y="588"/>
      <point x="302" y="655"/>
      <point x="325" y="689" type="curve" smooth="yes"/>
      <point x="341" y="712"/>
      <point x="350" y="723"/>
      <point x="349" y="733" type="curve" smooth="yes"/>
      <point x="349" y="744"/>
      <point x="340" y="748"/>
      <point x="331" y="747" type="curve" smooth="yes"/>
      <point x="321" y="747"/>
      <point x="314" y="736"/>
      <point x="300" y="711" type="curve" smooth="yes"/>
      <point x="278" y="673"/>
      <point x="237" y="601"/>
    </contour>
  </outline>
</glyph>
<glyph name="icircumflex" format="2">
  <advance width="286"/>
  <unicode hex="00EE"/>
  <anchor x="233" y="699" name="aboveLC"/>
  <anchor x="149" y="-22" name="belowLC"/>
  <anchor x="181" y="0" name="ogonek"/>
  <outline>
    <contour>
      <point x="98" y="28" type="curve" smooth="yes"/>
      <point x="98" y="4"/>
      <point x="116" y="-13"/>
      <point x="140" y="-13" type="curve" smooth="yes"/>
      <point x="195" y="-13"/>
      <point x="239" y="32"/>
      <point x="281" y="92" type="curve"/>
      <point x="271" y="100" type="line"/>
      <point x="229" y="47"/>
      <point x="188" y="13"/>
      <point x="154" y="13" type="curve" smooth="yes"/>
      <point x="135" y="13"/>
      <point x="125" y="20"/>
      <point x="125" y="38" type="curve" smooth="yes"/>
      <point x="125" y="56"/>
      <point x="132" y="80"/>
      <point x="136" y="99" type="curve" smooth="yes"/>
      <point x="218" y="473" type="line"/>
      <point x="205" y="483" type="line"/>
      <point x="65" y="468" type="line"/>
      <point x="62" y="454" type="line"/>
      <point x="191" y="452" type="line"/>
      <point x="187" y="459" type="line"/>
      <point x="110" y="99" type="line" smooth="yes"/>
      <point x="103" y="68"/>
      <point x="98" y="54"/>
    </contour>
    <contour>
      <point x="315" y="553" type="line"/>
      <point x="327" y="562" type="line"/>
      <point x="247" y="739" type="line"/>
      <point x="233" y="739" type="line"/>
      <point x="87" y="562" type="line"/>
      <point x="97" y="553" type="line"/>
      <point x="241" y="708" type="line"/>
      <point x="227" y="708" type="line"/>
    </contour>
  </outline>
</glyph>
<glyph name="ntilde" format="2">
  <advance width="556"/>
  <unicode hex="00F1"/>
  <anchor x="387" y="702" name="aboveLC"/>
  <anchor x="252" y="-22" name="belowLC"/>
  <outline>
    <contour>
      <point x="368" y="28" type="curve" smooth="yes"/>
      <point x="368" y="4"/>
      <point x="386" y="-13"/>
      <point x="410" y="-13" type="curve" smooth="yes"/>
      <point x="465" y="-13"/>
      <point x="509" y="32"/>
      <point x="551" y="92" type="curve"/>
      <point x="541" y="100" type="line"/>
      <point x="499" y="47"/>
      <point x="458" y="13"/>
      <point x="424" y="13" type="curve" smooth="yes"/>
      <point x="405" y="13"/>
      <point x="395" y="20"/>
      <point x="395" y="38" type="curve" smooth="yes"/>
      <point x="395" y="56"/>
      <point x="402" y="80"/>
      <point x="406" y="99" type="curve" smooth="yes"/>
      <point x="458" y="321" type="line" smooth="yes"/>
      <point x="467" y="361"/>
      <point x="475" y="388"/>
      <point x="475" y="419" type="curve" smooth="yes"/>
      <point x="475" y="458"/>
      <point x="454" y="483"/>
      <point x="410" y="483" type="curve" smooth="yes"/>
      <point x="355" y="483"/>
      <point x="255" y="430"/>
      <point x="176" y="344" type="curve"/>
      <point x="174" y="326" type="line"/>
      <point x="284" y="425"/>
      <point x="349" y="458"/>
      <point x="404" y="458" type="curve" smooth="yes"/>
      <point x="432" y="458"/>
      <point x="447" y="445"/>
      <point x="447" y="414" type="curve" smooth="yes"/>
      <point x="447" y="388"/>
      <point x="439" y="356"/>
      <point x="432" y="324" type="curve" smooth="yes"/>
      <point x="380" y="99" type="line" smooth="yes"/>
      <point x="373" y="68"/>
      <point x="368" y="54"/>
    </contour>
    <contour>
      <point x="117" y="0" type="line"/>
      <point x="131" y="69"/>
      <point x="144" y="138"/>
      <point x="160" y="207" type="curve" smooth="yes"/>
      <point x="192" y="351" type="line"/>
      <point x="216" y="473" type="line"/>
      <point x="203" y="483" type="line"/>
      <point x="65" y="468" type="line"/>
      <point x="62" y="454" type="line"/>
      <point x="191" y="452" type="line"/>
      <point x="187" y="459" type="line"/>
      <point x="90" y="0" type="line"/>
      <point x="96" y="-5" type="line"/>
    </contour>
    <contour>
      <point x="217" y="603" type="curve"/>
      <point x="230" y="597" type="line"/>
      <point x="250" y="652"/>
      <point x="276" y="670"/>
      <point x="304" y="670" type="curve" smooth="yes"/>
      <point x="324" y="670"/>
      <point x="339" y="661"/>
      <point x="366" y="632" type="curve" smooth="yes"/>
      <point x="397" y="600"/>
      <point x="416" y="587"/>
      <point x="442" y="587" type="curve" smooth="yes"/>
      <point x="476" y="587"/>
      <point x="506" y="616"/>
      <point x="529" y="674" type="curve"/>
      <point x="516" y="681" type="line"/>
      <point x="492" y="629"/>
      <point x="466" y="609"/>
      <point x="445" y="609" type="curve" smooth="yes"/>
      <point x="423" y="609"/>
      <point x="413" y="617"/>
      <point x="383" y="647" type="curve" smooth="yes"/>
      <point x="355" y="676"/>
      <point x="338" y="692"/>
      <point x="308" y="692" type="curve" smooth="yes"/>
      <point x="268" y="692"/>
      <point x="235" y="665"/>
    </contour>
  </outline>
</glyph>
<glyph name="oacute" format="2">
  <advance width="484"/>
  <unicode hex="00F3"/>
  <anchor x="355" y="747" name="aboveLC"/>
  <anchor x="226" y="-22" name="belowLC"/>
  <anchor x="441" y="489" name="hornLC"/>
  <anchor x="288" y="1" name="ogonek"/>
  <outline>
    <contour>
      <point x="215" y="-13" type="curve" smooth="yes"/>
      <point x="348" y="-13"/>
      <point x="452" y="139"/>
      <point x="452" y="306" type="curve" smooth="yes"/>
      <point x="452" y="433"/>
      <point x="382" y="483"/>
      <point x="303" y="483" type="curve" smooth="yes"/>
      <point x="165" y="483"/>
      <point x="66" y="313"/>
      <point x="66" y="161" type="curve" smooth="yes"/>
      <point x="66" y="32"/>
      <point x="147" y="-13"/>
    </contour>
    <contour>
      <point x="218" y="7" type="curve" smooth="yes"/>
      <point x="150" y="7"/>
      <point x="94" y="56"/>
      <point x="94" y="166" type="curve" smooth="yes"/>
      <point x="94" y="298"/>
      <point x="177" y="463"/>
      <point x="302" y="463" type="curve" smooth="yes"/>
      <point x="374" y="463"/>
      <point x="424" y="413"/>
      <point x="424" y="298" type="curve" smooth="yes"/>
      <point x="424" y="165"/>
      <point x="336" y="7"/>
    </contour>
    <contour>
      <point x="306" y="550" type="curve"/>
      <point x="319" y="543" type="line"/>
      <point x="352" y="588"/>
      <point x="399" y="655"/>
      <point x="422" y="689" type="curve" smooth="yes"/>
      <point x="438" y="712"/>
      <point x="447" y="723"/>
      <point x="446" y="733" type="curve" smooth="yes"/>
      <point x="446" y="744"/>
      <point x="437" y="748"/>
      <point x="428" y="747" type="curve" smooth="yes"/>
      <point x="418" y="747"/>
      <point x="411" y="736"/>
      <point x="397" y="711" type="curve" smooth="yes"/>
      <point x="375" y="673"/>
      <point x="334" y="601"/>
    </contour>
  </outline>
</glyph>
<glyph name="otilde" format="2">
  <advance width="484"/>
  <unicode hex="00F5"/>
  <anchor x="359" y="702" name="aboveLC"/>
  <anchor x="226" y="-22" name="belowLC"/>
  <anchor x="441" y="489" name="hornLC"/>
  <anchor x="288" y="1" name="ogonek"/>
  <outline>
    <contour>
      <point x="215" y="-13" type="curve" smooth="yes"/>
      <point x="348" y="-13"/>
      <point x="452" y="139"/>
      <point x="452" y="306" type="curve" smooth="yes"/>
      <point x="452" y="433"/>
      <point x="382" y="483"/>
      <point x="303" y="483" type="curve" smooth="yes"/>
      <point x="165" y="483"/>
      <point x="66" y="313"/>
      <point x="66" y="161" type="curve" smooth="yes"/>
      <point x="66" y="32"/>
      <point x="147" y="-13"/>
    </contour>
    <contour>
      <point x="218" y="7" type="curve" smooth="yes"/>
      <point x="150" y="7"/>
      <point x="94" y="56"/>
      <point x="94" y="166" type="curve" smooth="yes"/>
      <point x="94" y="298"/>
      <point x="177" y="463"/>
      <point x="302" y="463" type="curve" smooth="yes"/>
      <point x="374" y="463"/>
      <point x="424" y="413"/>
      <point x="424" y="298" type="curve" smooth="yes"/>
      <point x="424" y="165"/>
      <point x="336" y="7"/>
    </contour>
    <contour>
      <point x="189" y="603" type="curve"/>
      <point x="202" y="597" type="line"/>
      <point x="222" y="652"/>
      <point x="248" y="670"/>
      <point x="276" y="670" type="curve" smooth="yes"/>
      <point x="296" y="670"/>
      <point x="311" y="661"/>
      <point x="338" y="632" type="curve" smooth="yes"/>
      <point x="369" y="600"/>
      <point x="388" y="587"/>
      <point x="414" y="587" type="curve" smooth="yes"/>
      <point x="448" y="587"/>
      <point x="478" y="616"/>
      <point x="501" y="674" type="curve"/>
      <point x="488" y="681" type="line"/>
      <point x="464" y="629"/>
      <point x="438" y="609"/>
      <point x="417" y="609" type="curve" smooth="yes"/>
      <point x="395" y="609"/>
      <point x="385" y="617"/>
      <point x="355" y="647" type="curve" smooth="yes"/>
      <point x="327" y="676"/>
      <point x="310" y="692"/>
      <point x="280" y="692" type="curve" smooth="yes"/>
      <point x="240" y="692"/>
      <point x="207" y="665"/>
    </contour>
  </outline>
</glyph>
<glyph name="odieresis" format="2">
  <advance width="484"/>
  <unicode hex="00F6"/>
  <anchor x="359" y="701" name="aboveLC"/>
  <anchor x="226" y="-22" name="belowLC"/>
  <anchor x="441" y="489" name="hornLC"/>
  <anchor x="288" y="1" name="ogonek"/>
  <outline>
    <contour>
      <point x="215" y="-13" type="curve" smooth="yes"/>
      <point x="348" y="-13"/>
      <point x="452" y="139"/>
      <point x="452" y="306" type="curve" smooth="yes"/>
      <point x="452" y="433"/>
      <point x="382" y="483"/>
      <point x="303" y="483" type="curve" smooth="yes"/>
      <point x="165" y="483"/>
      <point x="66" y="313"/>
      <point x="66" y="161" type="curve" smooth="yes"/>
      <point x="66" y="32"/>
      <point x="147" y="-13"/>
    </contour>
    <contour>
      <point x="218" y="7" type="curve" smooth="yes"/>
      <point x="150" y="7"/>
      <point x="94" y="56"/>
      <point x="94" y="166" type="curve" smooth="yes"/>
      <point x="94" y="298"/>
      <point x="177" y="463"/>
      <point x="302" y="463" type="curve" smooth="yes"/>
      <point x="374" y="463"/>
      <point x="424" y="413"/>
      <point x="424" y="298" type="curve" smooth="yes"/>
      <point x="424" y="165"/>
      <point x="336" y="7"/>
    </contour>
    <contour>
      <point x="260" y="664" type="curve" smooth="yes"/>
      <point x="275" y="664"/>
      <point x="292" y="677"/>
      <point x="292" y="698" type="curve" smooth="yes"/>
      <point x="292" y="714"/>
      <point x="280" y="723"/>
      <point x="266" y="723" type="curve" smooth="yes"/>
      <point x="251" y="723"/>
      <point x="234" y="710"/>
      <point x="234" y="690" type="curve" smooth="yes"/>
      <point x="234" y="673"/>
      <point x="246" y="664"/>
    </contour>
    <contour>
      <point x="437" y="664" type="curve" smooth="yes"/>
      <point x="452" y="664"/>
      <point x="469" y="677"/>
      <point x="469" y="698" type="curve" smooth="yes"/>
      <point x="469" y="714"/>
      <point x="457" y="723"/>
      <point x="443" y="723" type="curve" smooth="yes"/>
      <point x="428" y="723"/>
      <point x="411" y="710"/>
      <point x="411" y="690" type="curve" smooth="yes"/>
      <point x="411" y="673"/>
      <point x="423" y="664"/>
    </contour>
  </outline>
</glyph>
<glyph name="yacute" format="2">
  <advance width="465"/>
  <unicode hex="00FD"/>
  <anchor x="377" y="747" name="aboveLC"/>
  <anchor x="-17" y="-252" name="belowLC"/>
  <outline>
    <contour>
      <point x="-78" y="-207" type="curve"/>
      <point x="-72" y="-232"/>
      <point x="-48" y="-245"/>
      <point x="-18" y="-245" type="curve" smooth="yes"/>
      <point x="14" y="-245"/>
      <point x="70" y="-207"/>
      <point x="111" y="-165" type="curve" smooth="yes"/>
      <point x="162" y="-112"/>
      <point x="200" y="-61"/>
      <point x="245" y="10" type="curve" smooth="yes"/>
      <point x="295" y="89"/>
      <point x="332" y="165"/>
      <point x="409" y="315" type="curve" smooth="yes"/>
      <point x="436" y="368"/>
      <point x="449" y="395"/>
      <point x="464" y="431" type="curve" smooth="yes"/>
      <point x="472" y="450"/>
      <point x="474" y="460"/>
      <point x="474" y="467" type="curve" smooth="yes"/>
      <point x="474" y="477"/>
      <point x="467" y="483"/>
      <point x="458" y="483" type="curve" smooth="yes"/>
      <point x="442" y="483"/>
      <point x="435" y="466"/>
      <point x="405" y="374" type="curve" smooth="yes"/>
      <point x="385" y="310"/>
      <point x="306" y="148"/>
      <point x="222" y="5" type="curve"/>
      <point x="183" y="-56"/>
      <point x="141" y="-109"/>
      <point x="98" y="-152" type="curve" smooth="yes"/>
      <point x="61" y="-189"/>
      <point x="28" y="-210"/>
      <point x="-8" y="-227" type="curve"/>
      <point x="23" y="-231" type="line"/>
      <point x="-8" y="-203" type="line" smooth="yes"/>
      <point x="-24" y="-189"/>
      <point x="-36" y="-185"/>
      <point x="-48" y="-185" type="curve" smooth="yes"/>
      <point x="-62" y="-185"/>
      <point x="-74" y="-191"/>
    </contour>
    <contour>
      <point x="230" y="7" type="line"/>
      <point x="224" y="166"/>
      <point x="215" y="283"/>
      <point x="200" y="396" type="curve" smooth="yes"/>
      <point x="191" y="462"/>
      <point x="176" y="483"/>
      <point x="141" y="483" type="curve" smooth="yes"/>
      <point x="103" y="483"/>
      <point x="71" y="458"/>
      <point x="36" y="382" type="curve"/>
      <point x="49" y="376" type="line"/>
      <point x="85" y="446"/>
      <point x="111" y="457"/>
      <point x="132" y="457" type="curve" smooth="yes"/>
      <point x="154" y="457"/>
      <point x="163" y="445"/>
      <point x="171" y="395" type="curve" smooth="yes"/>
      <point x="188" y="281"/>
      <point x="200" y="164"/>
      <point x="209" y="-23" type="curve"/>
    </contour>
    <contour>
      <point x="328" y="550" type="curve"/>
      <point x="341" y="543" type="line"/>
      <point x="374" y="588"/>
      <point x="421" y="655"/>
      <point x="444" y="689" type="curve" smooth="yes"/>
      <point x="460" y="712"/>
      <point x="469" y="723"/>
      <point x="468" y="733" type="curve" smooth="yes"/>
      <point x="468" y="744"/>
      <point x="459" y="748"/>
      <point x="450" y="747" type="curve" smooth="yes"/>
      <point x="440" y="747"/>
      <point x="433" y="736"/>
      <point x="419" y="711" type="curve" smooth="yes"/>
      <point x="397" y="673"/>
      <point x="356" y="601"/>
    </contour>
  </outline>
</glyph>
<glyph name="oe" format="2">
  <advance width="750"/>
  <unicode hex="0153"/>
  <anchor x="474" y="500" name="aboveLC"/>
  <anchor x="559" y="-22" name="belowLC"/>
  <anchor x="610" y="0" name="ogonek"/>
  <outline>
    <contour>
      <point x="211" y="-13" type="curve" smooth="yes"/>
      <point x="301" y="-13"/>
      <point x="379" y="60"/>
      <point x="422" y="160" type="curve"/>
      <point x="451" y="300" type="line"/>
      <point x="451" y="431"/>
      <point x="385" y="483"/>
      <point x="307" y="483" type="curve" smooth="yes"/>
      <point x="169" y="483"/>
      <point x="65" y="311"/>
      <point x="65" y="157" type="curve" smooth="yes"/>
      <point x="65" y="31"/>
      <point x="143" y="-13"/>
    </contour>
    <contour>
      <point x="214" y="7" type="curve" smooth="yes"/>
      <point x="146" y="7"/>
      <point x="92" y="55"/>
      <point x="92" y="162" type="curve" smooth="yes"/>
      <point x="92" y="296"/>
      <point x="181" y="463"/>
      <point x="306" y="463" type="curve" smooth="yes"/>
      <point x="378" y="463"/>
      <point x="427" y="414"/>
      <point x="427" y="302" type="curve" smooth="yes"/>
      <point x="427" y="167"/>
      <point x="332" y="7"/>
    </contour>
    <contour>
      <point x="553" y="-13" type="curve" smooth="yes"/>
      <point x="624" y="-13"/>
      <point x="677" y="26"/>
      <point x="720" y="92" type="curve"/>
      <point x="709" y="100" type="line"/>
      <point x="667" y="43"/>
      <point x="621" y="12"/>
      <point x="563" y="12" type="curve" smooth="yes"/>
      <point x="486" y="12"/>
      <point x="438" y="64"/>
      <point x="438" y="171" type="curve" smooth="yes"/>
      <point x="438" y="309"/>
      <point x="550" y="464"/>
      <point x="662" y="464" type="curve" smooth="yes"/>
      <point x="704" y="464"/>
      <point x="732" y="445"/>
      <point x="732" y="406" type="curve" smooth="yes"/>
      <point x="732" y="316"/>
      <point x="618" y="235"/>
      <point x="423" y="183" type="curve"/>
      <point x="425" y="167" type="line"/>
      <point x="631" y="219"/>
      <point x="756" y="309"/>
      <point x="756" y="408" type="curve" smooth="yes"/>
      <point x="756" y="460"/>
      <point x="716" y="483"/>
      <point x="668" y="483" type="curve" smooth="yes"/>
      <point x="533" y="483"/>
      <point x="412" y="318"/>
      <point x="412" y="162" type="curve" smooth="yes"/>
      <point x="412" y="34"/>
      <point x="481" y="-13"/>
    </contour>
  </outline>
</glyph>
<glyph name="Zcaron" format="2">
  <advance width="542"/>
  <unicode hex="017D"/>
  <anchor x="401" y="855" name="aboveUC"/>
  <anchor x="250" y="-22" name="belowLC"/>
  <outline>
    <contour>
      <point x="-6" y="0" type="line"/>
      <point x="15" y="0" type="line"/>
      <point x="574" y="657" type="line"/>
      <point x="578" y="677" type="line"/>
      <point x="559" y="677" type="line"/>
      <point x="-2" y="20" type="line"/>
    </contour>
    <contour>
      <point x="86" y="514" type="line"/>
      <point x="108" y="514" type="line"/>
      <point x="161" y="677" type="line"/>
      <point x="141" y="655" type="line"/>
      <point x="568" y="655" type="line"/>
      <point x="572" y="677" type="line"/>
      <point x="125" y="677" type="line"/>
    </contour>
    <contour>
      <point x="4" y="0" type="line"/>
      <point x="479" y="0" type="line"/>
      <point x="520" y="163" type="line"/>
      <point x="498" y="163" type="line"/>
      <point x="443" y="0" type="line"/>
      <point x="463" y="22" type="line"/>
      <point x="8" y="22" type="line"/>
    </contour>
    <contour>
      <point x="281" y="865" type="line"/>
      <point x="268" y="854" type="line"/>
      <point x="368" y="740" type="line"/>
      <point x="388" y="740" type="line"/>
      <point x="520" y="854" type="line"/>
      <point x="511" y="865" type="line"/>
      <point x="372" y="761" type="line"/>
      <point x="390" y="761" type="line"/>
    </contour>
  </outline>
</glyph>
<glyph name="circumflex" format="2">
  <advance width="260"/>
  <unicode hex="02C6"/>
  <anchor x="198" y="500" name="_aboveLC"/>
  <anchor x="241" y="699" name="aboveLC"/>
  <outline>
    <contour>
      <point x="323" y="553" type="line"/>
      <point x="335" y="562" type="line"/>
      <point x="255" y="739" type="line"/>
      <point x="241" y="739" type="line"/>
      <point x="95" y="562" type="line"/>
      <point x="105" y="553" type="line"/>
      <point x="249" y="708" type="line"/>
      <point x="235" y="708" type="line"/>
    </contour>
  </outline>
</glyph>
<glyph name="caron" format="2">
  <advance width="400"/>
  <unicode hex="02C7"/>
  <anchor x="257" y="500" name="_aboveLC"/>
  <anchor x="309" y="743" name="aboveLC"/>
  <outline>
    <contour>
      <point x="192" y="751" type="line"/>
      <point x="180" y="744" type="line"/>
      <point x="258" y="557" type="line"/>
      <point x="280" y="557" type="line"/>
      <point x="424" y="744" type="line"/>
      <point x="413" y="753" type="line"/>
      <point x="264" y="578" type="line"/>
      <point x="283" y="578" type="line"/>
    </contour>
  </outline>
</glyph>
<glyph name="colontriangularmod" format="2">
  <advance width="300"/>
  <unicode hex="02D0"/>
  <outline>
    <contour>
      <point x="164" y="467" type="line"/>
      <point x="185" y="410" type="line"/>
      <point x="189" y="410" type="line"/>
      <point x="234" y="467" type="line"/>
      <point x="233" y="470" type="line"/>
      <point x="167" y="470" type="line"/>
    </contour>
    <contour>
      <point x="66" y="3" type="line"/>
      <point x="67" y="0" type="line"/>
      <point x="133" y="0" type="line"/>
      <point x="136" y="3" type="line"/>
      <point x="115" y="60" type="line"/>
      <point x="111" y="60" type="line"/>
    </contour>
  </outline>
</glyph>
<glyph name="breve" format="2">
  <advance width="400"/>
  <unicode hex="02D8"/>
  <anchor x="269" y="500" name="_aboveLC"/>
  <anchor x="318" y="730" name="aboveLC"/>
  <outline>
    <contour>
      <point x="285" y="585" type="curve" smooth="yes"/>
      <point x="359" y="585"/>
      <point x="417" y="637"/>
      <point x="445" y="724" type="curve"/>
      <point x="430" y="729" type="line"/>
      <point x="399" y="655"/>
      <point x="355" y="612"/>
      <point x="290" y="612" type="curve" smooth="yes"/>
      <point x="214" y="612"/>
      <point x="184" y="661"/>
      <point x="176" y="730" type="curve"/>
      <point x="161" y="726" type="line"/>
      <point x="161" y="639"/>
      <point x="204" y="585"/>
    </contour>
  </outline>
</glyph>
<glyph name="dotaccent" format="2">
  <advance width="400"/>
  <unicode hex="02D9"/>
  <anchor x="252" y="500" name="_aboveLC"/>
  <anchor x="290" y="679" name="aboveLC"/>
  <outline>
    <contour>
      <point x="286" y="636" type="curve" smooth="yes"/>
      <point x="301" y="636"/>
      <point x="319" y="649"/>
      <point x="319" y="672" type="curve" smooth="yes"/>
      <point x="319" y="689"/>
      <point x="306" y="699"/>
      <point x="290" y="699" type="curve" smooth="yes"/>
      <point x="275" y="699"/>
      <point x="257" y="686"/>
      <point x="257" y="664" type="curve" smooth="yes"/>
      <point x="257" y="645"/>
      <point x="271" y="636"/>
    </contour>
  </outline>
</glyph>
<glyph name="ring" format="2">
  <advance width="400"/>
  <unicode hex="02DA"/>
  <anchor x="270" y="504" name="_aboveLC"/>
  <anchor x="323" y="753" name="aboveLC"/>
  <outline>
    <contour>
      <point x="293" y="569" type="curve" smooth="yes"/>
      <point x="338" y="569"/>
      <point x="389" y="605"/>
      <point x="389" y="666" type="curve" smooth="yes"/>
      <point x="389" y="711"/>
      <point x="354" y="743"/>
      <point x="311" y="743" type="curve" smooth="yes"/>
      <point x="264" y="743"/>
      <point x="215" y="708"/>
      <point x="215" y="646" type="curve" smooth="yes"/>
      <point x="215" y="603"/>
      <point x="247" y="569"/>
    </contour>
    <contour>
      <point x="294" y="589" type="curve" smooth="yes"/>
      <point x="259" y="589"/>
      <point x="239" y="618"/>
      <point x="239" y="648" type="curve" smooth="yes"/>
      <point x="239" y="690"/>
      <point x="269" y="723"/>
      <point x="309" y="723" type="curve" smooth="yes"/>
      <point x="344" y="723"/>
      <point x="365" y="695"/>
      <point x="365" y="664" type="curve" smooth="yes"/>
      <point x="365" y="621"/>
      <point x="335" y="589"/>
    </contour>
  </outline>
</glyph>
<glyph name="ogonek" format="2">
  <advance width="400"/>
  <unicode hex="02DB"/>
  <anchor x="182" y="0" name="_ogonek"/>
  <outline>
    <contour>
      <point x="67" y="-175" type="curve" smooth="yes"/>
      <point x="67" y="-213"/>
      <point x="88" y="-245"/>
      <point x="140" y="-245" type="curve" smooth="yes"/>
      <point x="175" y="-245"/>
      <point x="209" y="-227"/>
      <point x="239" y="-201" type="curve"/>
      <point x="230" y="-191" type="line"/>
      <point x="205" y="-209"/>
      <point x="172" y="-221"/>
      <point x="147" y="-221" type="curve" smooth="yes"/>
      <point x="111" y="-221"/>
      <point x="94" y="-199"/>
      <point x="94" y="-165" type="curve" smooth="yes"/>
      <point x="94" y="-121"/>
      <point x="132" y="-62"/>
      <point x="198" y="5" type="curve"/>
      <point x="179" y="5" type="line"/>
      <point x="117" y="-53"/>
      <point x="67" y="-120"/>
    </contour>
  </outline>
</glyph>
<glyph name="tilde" format="2">
  <advance width="400"/>
  <unicode hex="02DC"/>
  <anchor x="254" y="500" name="_aboveLC"/>
  <anchor x="297" y="702" name="aboveLC"/>
  <outline>
    <contour>
      <point x="127" y="603" type="curve"/>
      <point x="140" y="597" type="line"/>
      <point x="160" y="652"/>
      <point x="186" y="670"/>
      <point x="214" y="670" type="curve" smooth="yes"/>
      <point x="234" y="670"/>
      <point x="249" y="661"/>
      <point x="276" y="632" type="curve" smooth="yes"/>
      <point x="307" y="600"/>
      <point x="326" y="587"/>
      <point x="352" y="587" type="curve" smooth="yes"/>
      <point x="386" y="587"/>
      <point x="416" y="616"/>
      <point x="439" y="674" type="curve"/>
      <point x="426" y="681" type="line"/>
      <point x="402" y="629"/>
      <point x="376" y="609"/>
      <point x="355" y="609" type="curve" smooth="yes"/>
      <point x="333" y="609"/>
      <point x="323" y="617"/>
      <point x="293" y="647" type="curve" smooth="yes"/>
      <point x="265" y="676"/>
      <point x="248" y="692"/>
      <point x="218" y="692" type="curve" smooth="yes"/>
      <point x="178" y="692"/>
      <point x="145" y="665"/>
    </contour>
  </outline>
</glyph>
<glyph name="hungarumlaut" format="2">
  <advance width="400"/>
  <unicode hex="02DD"/>
  <anchor x="253" y="510" name="_aboveLC"/>
  <anchor x="301" y="737" name="aboveLC"/>
  <outline>
    <contour>
      <point x="156" y="572" type="line"/>
      <point x="168" y="564" type="line"/>
      <point x="274" y="693" type="line" smooth="yes"/>
      <point x="282" y="703"/>
      <point x="290" y="715"/>
      <point x="290" y="722" type="curve" smooth="yes"/>
      <point x="290" y="731"/>
      <point x="284" y="737"/>
      <point x="275" y="737" type="curve" smooth="yes"/>
      <point x="264" y="737"/>
      <point x="256" y="727"/>
      <point x="246" y="711" type="curve" smooth="yes"/>
    </contour>
    <contour>
      <point x="296" y="572" type="line"/>
      <point x="308" y="564" type="line"/>
      <point x="414" y="693" type="line" smooth="yes"/>
      <point x="422" y="703"/>
      <point x="430" y="715"/>
      <point x="430" y="722" type="curve" smooth="yes"/>
      <point x="430" y="731"/>
      <point x="424" y="737"/>
      <point x="415" y="737" type="curve" smooth="yes"/>
      <point x="404" y="737"/>
      <point x="396" y="727"/>
      <point x="386" y="711" type="curve" smooth="yes"/>
    </contour>
  </outline>
</glyph>
<glyph name="ustraight" format="2">
  <advance width="461"/>
  <unicode hex="04AF"/>
  <anchor x="298" y="490" name="aboveLC"/>
  <outline>
    <contour>
      <point x="50" y="-245" type="line"/>
      <point x="273" y="-245" type="line"/>
      <point x="276" y="-225" type="line"/>
      <point x="163" y="-219" type="line"/>
      <point x="154" y="-219" type="line"/>
      <point x="53" y="-225" type="line"/>
    </contour>
    <contour>
      <point x="138" y="-245" type="line"/>
      <point x="165" y="-245" type="line"/>
      <point x="179" y="-176"/>
      <point x="193" y="-107"/>
      <point x="220" y="17" type="curve" smooth="yes"/>
      <point x="222" y="28" type="line"/>
      <point x="196" y="26" type="line"/>
    </contour>
    <component base="v"/>
  </outline>
</glyph>
<glyph name="ustraightstroke" format="2">
  <advance width="461"/>
  <unicode hex="04B1"/>
  <anchor x="298" y="490" name="aboveLC"/>
  <outline>
    <contour>
      <point x="43" y="0" type="line"/>
      <point x="371" y="0" type="line"/>
      <point x="375" y="20" type="line"/>
      <point x="45" y="20" type="line"/>
    </contour>
    <component base="ustraight"/>
  </outline>
</glyph>
<glyph name="endash" format="2">
  <advance width="510"/>
  <unicode hex="2013"/>
  <outline>
    <contour>
      <point x="56" y="235" type="line"/>
      <point x="486" y="235" type="line"/>
      <point x="486" y="261" type="line"/>
      <point x="56" y="261" type="line"/>
    </contour>
  </outline>
</glyph>
<glyph name="emdash" format="2">
  <advance width="810"/>
  <unicode hex="2014"/>
  <outline>
    <contour>
      <point x="56" y="235" type="line"/>
      <point x="786" y="235" type="line"/>
      <point x="786" y="261" type="line"/>
      <point x="56" y="261" type="line"/>
    </contour>
  </outline>
</glyph>
<glyph name="quoteright" format="2">
  <advance width="229"/>
  <unicode hex="2019"/>
  <outline>
    <contour>
      <point x="218" y="723" type="curve" smooth="yes"/>
      <point x="205" y="723"/>
      <point x="192" y="709"/>
      <point x="192" y="693" type="curve" smooth="yes"/>
      <point x="192" y="682"/>
      <point x="197" y="673"/>
      <point x="210" y="660" type="curve" smooth="yes"/>
      <point x="234" y="635" type="line"/>
      <point x="227" y="653" type="line"/>
      <point x="213" y="589"/>
      <point x="186" y="556"/>
      <point x="136" y="504" type="curve"/>
      <point x="147" y="493" type="line"/>
      <point x="204" y="548"/>
      <point x="248" y="602"/>
      <point x="248" y="668" type="curve" smooth="yes"/>
      <point x="248" y="683"/>
      <point x="244" y="706"/>
      <point x="235" y="719" type="curve"/>
      <point x="230" y="722"/>
      <point x="223" y="723"/>
    </contour>
  </outline>
</glyph>
<glyph name="quotesinglbase" format="2">
  <advance width="290"/>
  <unicode hex="201A"/>
  <outline>
    <contour>
      <point x="101" y="53" type="curve" smooth="yes"/>
      <point x="88" y="53"/>
      <point x="75" y="39"/>
      <point x="75" y="23" type="curve" smooth="yes"/>
      <point x="75" y="12"/>
      <point x="80" y="3"/>
      <point x="93" y="-10" type="curve" smooth="yes"/>
      <point x="117" y="-35" type="line"/>
      <point x="110" y="-17" type="line"/>
      <point x="96" y="-81"/>
      <point x="69" y="-114"/>
      <point x="19" y="-166" type="curve"/>
      <point x="30" y="-177" type="line"/>
      <point x="87" y="-122"/>
      <point x="131" y="-68"/>
      <point x="131" y="-2" type="curve" smooth="yes"/>
      <point x="131" y="13"/>
      <point x="127" y="36"/>
      <point x="118" y="49" type="curve"/>
      <point x="113" y="52"/>
      <point x="106" y="53"/>
    </contour>
  </outline>
</glyph>
<glyph name="quotedblleft" format="2">
  <advance width="404"/>
  <unicode hex="201C"/>
  <outline>
    <contour>
      <point x="191" y="522" type="curve" smooth="yes"/>
      <point x="204" y="522"/>
      <point x="217" y="536"/>
      <point x="217" y="552" type="curve" smooth="yes"/>
      <point x="217" y="563"/>
      <point x="212" y="572"/>
      <point x="199" y="585" type="curve" smooth="yes"/>
      <point x="175" y="610" type="line"/>
      <point x="182" y="592" type="line"/>
      <point x="196" y="656"/>
      <point x="223" y="689"/>
      <point x="273" y="741" type="curve"/>
      <point x="262" y="752" type="line"/>
      <point x="205" y="697"/>
      <point x="161" y="643"/>
      <point x="161" y="577" type="curve" smooth="yes"/>
      <point x="161" y="562"/>
      <point x="165" y="539"/>
      <point x="174" y="526" type="curve"/>
      <point x="179" y="523"/>
      <point x="186" y="522"/>
    </contour>
    <contour>
      <point x="366" y="522" type="curve" smooth="yes"/>
      <point x="379" y="522"/>
      <point x="392" y="536"/>
      <point x="392" y="552" type="curve" smooth="yes"/>
      <point x="392" y="563"/>
      <point x="387" y="572"/>
      <point x="374" y="585" type="curve" smooth="yes"/>
      <point x="350" y="610" type="line"/>
      <point x="357" y="592" type="line"/>
      <point x="371" y="656"/>
      <point x="398" y="689"/>
      <point x="448" y="741" type="curve"/>
      <point x="437" y="752" type="line"/>
      <point x="380" y="697"/>
      <point x="336" y="643"/>
      <point x="336" y="577" type="curve" smooth="yes"/>
      <point x="336" y="562"/>
      <point x="340" y="539"/>
      <point x="349" y="526" type="curve"/>
      <point x="354" y="523"/>
      <point x="361" y="522"/>
    </contour>
  </outline>
</glyph>
<glyph name="quotedblright" format="2">
  <advance width="404"/>
  <unicode hex="201D"/>
  <outline>
    <contour>
      <point x="393" y="723" type="curve" smooth="yes"/>
      <point x="380" y="723"/>
      <point x="367" y="709"/>
      <point x="367" y="693" type="curve" smooth="yes"/>
      <point x="367" y="682"/>
      <point x="372" y="673"/>
      <point x="385" y="660" type="curve" smooth="yes"/>
      <point x="409" y="635" type="line"/>
      <point x="402" y="653" type="line"/>
      <point x="388" y="589"/>
      <point x="361" y="556"/>
      <point x="311" y="504" type="curve"/>
      <point x="322" y="493" type="line"/>
      <point x="379" y="548"/>
      <point x="423" y="602"/>
      <point x="423" y="668" type="curve" smooth="yes"/>
      <point x="423" y="683"/>
      <point x="419" y="706"/>
      <point x="410" y="719" type="curve"/>
      <point x="405" y="722"/>
      <point x="398" y="723"/>
    </contour>
    <contour>
      <point x="218" y="723" type="curve" smooth="yes"/>
      <point x="205" y="723"/>
      <point x="192" y="709"/>
      <point x="192" y="693" type="curve" smooth="yes"/>
      <point x="192" y="682"/>
      <point x="197" y="673"/>
      <point x="210" y="660" type="curve" smooth="yes"/>
      <point x="234" y="635" type="line"/>
      <point x="227" y="653" type="line"/>
      <point x="213" y="589"/>
      <point x="186" y="556"/>
      <point x="136" y="504" type="curve"/>
      <point x="147" y="493" type="line"/>
      <point x="204" y="548"/>
      <point x="248" y="602"/>
      <point x="248" y="668" type="curve" smooth="yes"/>
      <point x="248" y="683"/>
      <point x="244" y="706"/>
      <point x="235" y="719" type="curve"/>
      <point x="230" y="722"/>
      <point x="223" y="723"/>
    </contour>
  </outline>
</glyph>
<glyph name="guilsinglleft" format="2">
  <advance width="345"/>
  <unicode hex="2039"/>
  <outline>
    <contour>
      <point x="259" y="48" type="line"/>
      <point x="273" y="61" type="line"/>
      <point x="101" y="262" type="line"/>
      <point x="98" y="243" type="line"/>
      <point x="330" y="442" type="line"/>
      <point x="319" y="457" type="line"/>
      <point x="71" y="260" type="line"/>
      <point x="68" y="245" type="line"/>
    </contour>
  </outline>
</glyph>
<glyph name="guilsinglright" format="2">
  <advance width="345"/>
  <unicode hex="203A"/>
  <outline>
    <contour>
      <point x="119" y="457" type="line"/>
      <point x="105" y="444" type="line"/>
      <point x="277" y="243" type="line"/>
      <point x="280" y="262" type="line"/>
      <point x="48" y="63" type="line"/>
      <point x="59" y="48" type="line"/>
      <point x="307" y="245" type="line"/>
      <point x="310" y="260" type="line"/>
    </contour>
  </outline>
</glyph>
<glyph name="minus" format="2">
  <advance width="530"/>
  <unicode hex="2212"/>
  <outline>
    <contour>
      <point x="515" y="325" type="line"/>
      <point x="515" y="347" type="line"/>
      <point x="75" y="347" type="line"/>
      <point x="75" y="325" type="line"/>
    </contour>
  </outline>
</glyph>
<glyph name="notequal" format="2">
  <advance width="530"/>
  <unicode hex="2260"/>
  <outline>
    <contour>
      <point x="151" y="63" type="line"/>
      <point x="454" y="587" type="line"/>
      <point x="437" y="597" type="line"/>
      <point x="134" y="73" type="line"/>
    </contour>
    <contour>
      <point x="518" y="225" type="line"/>
      <point x="518" y="247" type="line"/>
      <point x="78" y="247" type="line"/>
      <point x="78" y="225" type="line"/>
    </contour>
    <contour>
      <point x="518" y="425" type="line"/>
      <point x="518" y="447" type="line"/>
      <point x="78" y="447" type="line"/>
      <point x="78" y="425" type="line"/>
    </contour>
  </outline>
</glyph>
<glyph name="caroncmb.cap" format="2">
  <anchor x="145" y="682" name="_aboveUC"/>
  <anchor x="182" y="855" name="aboveUC"/>
  <outline>
    <contour>
      <point x="62" y="865" type="line"/>
      <point x="49" y="854" type="line"/>
      <point x="149" y="740" type="line"/>
      <point x="169" y="740" type="line"/>
      <point x="301" y="854" type="line"/>
      <point x="292" y="865" type="line"/>
      <point x="153" y="761" type="line"/>
      <point x="171" y="761" type="line"/>
    </contour>
  </outline>
</glyph>
<glyph name="macroncmb.cap" format="2">
  <anchor x="145" y="682" name="_aboveUC"/>
  <anchor x="171" y="803" name="aboveUC"/>
  <outline>
    <contour>
      <point x="7" y="767" type="line"/>
      <point x="299" y="767" type="line"/>
      <point x="305" y="793" type="line"/>
      <point x="13" y="793" type="line"/>
    </contour>
  </outline>
</glyph>
